<svg width="31" height="33" viewBox="0 0 31 33" fill="none" xmlns="http://www.w3.org/2000/svg">
<path d="M12.7642 30.5987C12.8554 31.1966 13.1822 31.7444 13.6841 32.1408C14.186 32.5373 14.8292 32.7557 15.4949 32.7557C16.1606 32.7557 16.8038 32.5373 17.3057 32.1408C17.8077 31.7444 18.1344 31.1966 18.2256 30.5987H12.7642Z" fill="black"/>
<path d="M31 26.1782L30.6463 25.904C29.6429 25.1185 28.7646 24.2177 28.0352 23.2259C27.2386 21.8572 26.7612 20.3625 26.6309 18.8294V14.3141C26.6266 13.7657 26.571 13.2185 26.4644 12.678C24.7023 12.3598 23.1195 11.5163 21.984 10.2904C20.8485 9.06449 20.23 7.53144 20.2332 5.95082V5.37499C19.1471 4.90535 17.9802 4.59652 16.7795 4.46096V3.30929C16.7795 2.98567 16.6332 2.6753 16.3728 2.44647C16.1123 2.21763 15.7591 2.08907 15.3908 2.08907C15.0225 2.08907 14.6692 2.21763 14.4088 2.44647C14.1483 2.6753 14.002 2.98567 14.002 3.30929V4.50667C11.3137 4.83988 8.85328 6.0164 7.0751 7.81903C5.29691 9.62166 4.32099 11.9287 4.32752 14.3141V18.8294C4.19723 20.3625 3.71977 21.8572 2.92315 23.2259C2.20629 24.2152 1.34215 25.1159 0.353691 25.904L0 26.1782V28.7557H31V26.1782Z" fill="black"/>
<path d="M26.2828 10.0891C28.8881 10.0891 31.0002 7.99973 31.0002 5.4224C31.0002 2.84507 28.8881 0.755737 26.2828 0.755737C23.6774 0.755737 21.5654 2.84507 21.5654 5.4224C21.5654 7.99973 23.6774 10.0891 26.2828 10.0891Z" fill="black"/>
</svg>
