<svg width="32" height="30" viewBox="0 0 32 30" fill="none" xmlns="http://www.w3.org/2000/svg">
<path d="M13.9872 27.4245C13.9872 28.712 12.9435 29.7557 11.656 29.7557C10.3685 29.7557 9.32482 28.712 9.32482 27.4245L9.32482 4.24683C9.32482 2.95936 10.3685 1.91565 11.656 1.91565C12.9435 1.91565 13.9872 2.95936 13.9872 4.24683L13.9872 27.4245Z" fill="black"/>
<path d="M18.0132 3.08697C18.0132 1.7995 19.0569 0.755791 20.3444 0.755791C21.6318 0.75579 22.6755 1.7995 22.6755 3.08697L22.6755 26.2646C22.6755 27.5521 21.6318 28.5958 20.3444 28.5958C19.0569 28.5958 18.0132 27.5521 18.0132 26.2646L18.0132 3.08697Z" fill="black"/>
<path d="M4.3548 13.7575C3.5531 14.5554 2.25329 14.5554 1.4516 13.7575C0.6499 12.9596 0.6499 11.6661 1.4516 10.8682L10.1612 2.20038C10.9629 1.40252 12.2627 1.40252 13.0644 2.20038C13.8661 2.99823 13.8661 4.29181 13.0644 5.08966L4.3548 13.7575Z" fill="black"/>
<path d="M27.645 16.754C28.4467 15.9561 29.7465 15.9561 30.5482 16.754C31.3499 17.5518 31.3499 18.8454 30.5482 19.6433L21.8386 28.3111C21.0369 29.109 19.737 29.109 18.9354 28.3111C18.1337 27.5132 18.1337 26.2197 18.9354 25.4218L27.645 16.754Z" fill="black"/>
</svg>
