<?xml version="1.0" encoding="UTF-8" standalone="no"?>
<svg
   xmlns:dc="http://purl.org/dc/elements/1.1/"
   xmlns:cc="http://creativecommons.org/ns#"
   xmlns:rdf="http://www.w3.org/1999/02/22-rdf-syntax-ns#"
   xmlns:svg="http://www.w3.org/2000/svg"
   xmlns="http://www.w3.org/2000/svg"
   id="Layer_1"
   data-name="Layer 1"
   viewBox="0 0 31.004157 48.429062"
   version="1.1"
   width="31.004156"
   height="48.429062">
  <metadata
     id="metadata27">
    <rdf:RDF>
      <cc:Work
         rdf:about="">
        <dc:format>image/svg+xml</dc:format>
        <dc:type
           rdf:resource="http://purl.org/dc/dcmitype/StillImage" />
        <dc:title></dc:title>
      </cc:Work>
    </rdf:RDF>
  </metadata>
  <defs
     id="defs25" />
  <path
     d="m 5.7269404,7.53129 c -1.335676,1.17577 -2.671352,2.34095 -4.007028,3.51672 1.353973,0.92155 2.707946,1.8431 4.061919,2.76465 0.283603,-0.25422 0.567205,-0.50844 0.850808,-0.76266 1.637575,-1.47237 3.275151,-2.93413 4.9127266,-4.40649 0.923995,-0.82622 1.84799,-1.65244 2.762837,-2.48925 V 0 C 14.033749,0.24363 13.750147,0.48725 13.475693,0.73088 10.895825,2.99768 8.3159574,5.25389 5.7360894,7.5207 v 0 z"
     fill="#ea3b4d"
     id="path4"
     style="stroke-width:0.984409" />
  <path
     d="m 17.793769,6.89573 c 1.637575,1.47237 3.275151,2.93414 4.912727,4.4065 0.933144,0.83681 1.866287,1.67362 2.799431,2.52102 0.100633,-0.0636 0.192118,-0.12711 0.292751,-0.20125 1.262488,-0.858 2.515829,-1.71599 3.778317,-2.56339 -0.301899,-0.26482 -0.603799,-0.52963 -0.905698,-0.79445 -2.579868,-2.2668 -5.159736,-4.52301 -7.739604,-6.78981 -1.317379,-1.15459 -2.62561,-2.29858 -3.942989,-3.45316 0,2.04435 0,4.0993 0,6.15426 0.274454,0.24362 0.53976,0.48725 0.814214,0.73088 v 0 z"
     fill="#ea3b4d"
     id="path6"
     style="stroke-width:0.984409" />
  <path
     d="m 26.649485,18.10264 v 13.907994 c 0.128079,0.07414 0.256158,0.148295 0.393385,0.222444 1.317379,0.741477 2.643907,1.482954 3.961286,2.224431 V 13.85503 c -1.445458,0.90036 -2.900064,1.81132 -4.345522,2.71169 v 1.53592 z"
     fill="#ea3b4d"
     id="path8"
     style="stroke-width:0.984409" />
  <path
     d="M 13.320169,41.543916 C 11.682593,40.071554 10.045017,38.609783 8.4074414,37.13742 7.4742984,36.30061 6.5320064,35.4638 5.6080104,34.616398 c -0.100633,0.06356 -0.192117,0.127109 -0.292751,0.201258 -1.262488,0.857995 -2.515828,1.71599 -3.778317,2.563393 0.3019,0.264813 0.603799,0.529627 0.905699,0.79444 2.579867,2.266804 5.159735,4.523014 7.7396026,6.789816 1.31738,1.154586 2.62561,2.29858 3.94299,3.453165 0,-2.044358 0,-4.09931 0,-6.154261 -0.274454,-0.243629 -0.53976,-0.487257 -0.814214,-0.730885 v 0 z"
     fill="#ea3b4d"
     id="path10"
     style="stroke-width:0.984409" />
  <path
     d="m 25.386997,40.897772 c 1.335676,-1.175772 2.671352,-2.340952 4.007029,-3.516723 -1.353973,-0.921551 -2.707947,-1.843102 -4.06192,-2.764651 -0.283602,0.25422 -0.567205,0.508441 -0.850807,0.762662 -1.637576,1.472362 -3.275152,2.934132 -4.912728,4.406496 -0.923994,0.826217 -1.84799,1.652435 -2.762836,2.489245 v 6.154262 c 0.274454,-0.243629 0.558056,-0.487256 0.832511,-0.730885 l 7.739602,-6.789814 v 0 z"
     fill="#ea3b4d"
     id="path12"
     style="stroke-width:0.984409" />
  <path
     d="m 0.0091485,27.858361 v 6.599148 C 1.4546064,33.641884 2.9092124,32.82626 4.3546704,32.010634 V 16.56672 C 4.2265924,16.48202 4.0985134,16.40784 3.9704354,16.32309 2.6530554,15.49688 1.3265274,14.67065 0,13.85503 v 14.003331 0 z"
     fill="#ea3b4d"
     id="path14"
     style="stroke-width:0.984409" />
  <path
     d="m 14.957744,10.03113 c -1.61013,1.44059 -3.229409,2.88116 -4.839539,4.32175 -0.9148466,0.81562 -1.8296936,1.63125 -2.7353916,2.44688 v 15.285022 c 0.265306,0.243629 0.530611,0.476664 0.805065,0.720292 1.610131,1.440584 3.2294086,2.881169 4.8395396,4.321753 0.914846,0.815626 1.820545,1.631251 2.735392,2.446878 0.265305,-0.243631 0.530611,-0.476666 0.795916,-0.709702 1.61013,-1.440585 3.229409,-2.881169 4.839539,-4.321754 0.914847,-0.815624 1.829694,-1.631249 2.735392,-2.446874 V 16.81035 C 23.868351,16.56672 23.603046,16.33368 23.328592,16.09006 21.718461,14.64947 20.099183,13.20889 18.489053,11.7683 17.574206,10.95268 16.668508,10.13705 15.753661,9.32142 15.488355,9.56506 15.22305,9.79809 14.957744,10.03113 Z"
     fill="#ea3b4d"
     id="path16"
     style="stroke-width:0.984409" />
</svg>
