<svg width="32" height="33" viewBox="0 0 32 33" fill="none" xmlns="http://www.w3.org/2000/svg">
<path fill-rule="evenodd" clip-rule="evenodd" d="M22.8726 20.7521H21.4199L20.915 20.2508C22.6988 18.1706 23.7837 15.4739 23.7837 12.5193C23.7837 5.95132 18.4598 0.627438 11.8918 0.627438C5.32388 0.627438 0 5.95132 0 12.5193C0 19.0872 5.32388 24.4111 11.8918 24.4111C14.8465 24.4111 17.5414 23.328 19.6215 21.5461L20.1265 22.0474V23.4963L29.2704 32.6274L31.9982 29.8996L22.8726 20.7521ZM12.0727 20.9328C7.5245 20.9328 3.83986 17.2482 3.83986 12.7C3.83986 8.15368 7.5245 4.46721 12.0727 4.46721C16.619 4.46721 20.3055 8.15368 20.3055 12.7C20.3055 17.2482 16.619 20.9328 12.0727 20.9328Z" fill="black"/>
</svg>
