<?xml version="1.0" encoding="UTF-8" standalone="no"?>
<svg
   xmlns:dc="http://purl.org/dc/elements/1.1/"
   xmlns:cc="http://creativecommons.org/ns#"
   xmlns:rdf="http://www.w3.org/1999/02/22-rdf-syntax-ns#"
   xmlns:svg="http://www.w3.org/2000/svg"
   xmlns="http://www.w3.org/2000/svg"
   xmlns:sodipodi="http://sodipodi.sourceforge.net/DTD/sodipodi-0.dtd"
   xmlns:inkscape="http://www.inkscape.org/namespaces/inkscape"
   width="32"
   height="33"
   viewBox="0 0 32 33"
   fill="none"
   version="1.1"
   id="svg4"
   sodipodi:docname="Settings.svg"
   inkscape:version="1.0.2 (1.0.2+r75+1)">
  <metadata
     id="metadata10">
    <rdf:RDF>
      <cc:Work
         rdf:about="">
        <dc:format>image/svg+xml</dc:format>
        <dc:type
           rdf:resource="http://purl.org/dc/dcmitype/StillImage" />
      </cc:Work>
    </rdf:RDF>
  </metadata>
  <defs
     id="defs8" />
  <sodipodi:namedview
     pagecolor="#ffffff"
     bordercolor="#666666"
     borderopacity="1"
     objecttolerance="10"
     gridtolerance="10"
     guidetolerance="10"
     inkscape:pageopacity="0"
     inkscape:pageshadow="2"
     inkscape:window-width="1920"
     inkscape:window-height="1016"
     id="namedview6"
     showgrid="false"
     inkscape:zoom="21.598898"
     inkscape:cx="9.1780104"
     inkscape:cy="20.448569"
     inkscape:window-x="0"
     inkscape:window-y="27"
     inkscape:window-maximized="1"
     inkscape:current-layer="svg4"
     inkscape:document-rotation="0" />
  <path
     fill-rule="evenodd"
     clip-rule="evenodd"
     d="m 13.4713,0.755737 h 5.0524 l 1.017,4.068013 c 0.8378,0.24815 1.6387,0.58212 2.3925,0.99171 l 3.5923,-2.15539 3.5726,3.57262 -2.1555,3.59251 c 0.4082,0.7513 0.7413,1.5494 0.9892,2.3842 L 32,14.2264 v 5.0525 l -4.0652,1.0163 c -0.2481,0.8384 -0.5822,1.6399 -0.992,2.3942 l 2.1573,3.5957 -3.5726,3.5726 -3.5959,-2.1575 c -0.752,0.4084 -1.5508,0.7416 -2.3863,0.9895 l -1.0166,4.066 H 13.4763 L 12.4601,28.691 C 11.6206,28.4424 10.8182,28.1075 10.063,27.6968 L 6.47189,29.8514 2.89927,26.2788 5.05563,22.6848 C 4.64806,21.9339 4.31553,21.1363 4.0681,20.3021 L 0,19.285 V 14.2326 L 4.06718,13.2158 C 4.31532,12.3784 4.6492,11.5779 5.05864,10.8244 L 2.89986,7.2264 6.47248,3.65378 10.0717,5.8133 C 10.8224,5.40573 11.6198,5.07316 12.4538,4.82564 Z M 16,26.781918 c 5.785735,0 10.053944,-4.581845 10.053944,-10.026218 C 26.053944,12.3375 22.536914,6.7771793 16,6.7771793 9.3994668,6.7771793 5.9788919,12.3375 5.9788919,16.7557 5.9788919,23.301324 11.5817,26.781918 16,26.781918 Z"
     fill="#000000"
     id="path2"
     sodipodi:nodetypes="cccccccccccccccccccccccccccccccccsssss" />
</svg>
