<?xml version="1.0" encoding="UTF-8" standalone="no"?>
<svg
   xmlns:dc="http://purl.org/dc/elements/1.1/"
   xmlns:cc="http://creativecommons.org/ns#"
   xmlns:rdf="http://www.w3.org/1999/02/22-rdf-syntax-ns#"
   xmlns:svg="http://www.w3.org/2000/svg"
   xmlns="http://www.w3.org/2000/svg"
   width="187.855"
   height="36.9189"
   viewBox="0 0 187.855 36.9189"
   fill="none"
   version="1.1"
   id="svg35">
  <metadata
     id="metadata41">
    <rdf:RDF>
      <cc:Work
         rdf:about="">
        <dc:format>image/svg+xml</dc:format>
        <dc:type
           rdf:resource="http://purl.org/dc/dcmitype/StillImage" />
        <dc:title></dc:title>
      </cc:Work>
    </rdf:RDF>
  </metadata>
  <defs
     id="defs39" />
  <path
     fill-rule="evenodd"
     clip-rule="evenodd"
     d="M 15.8461,0.8664 C 13.9573,2.8718 7.6356,5.1285 2.2065,5.7354 L 0,5.9821 0.2106,9.9665 c 0.2537,4.81 1.3,8.9398 3.2847,12.9687 2.5112,5.0977 7.4505,10.5371 11.9891,13.2034 l 1.3285,0.7803 2.5431,-1.7016 c 1.3986,-0.9355 3.5699,-2.7399 4.8253,-4.0091 l 2.2827,-2.3078 -1.435,-0.1196 c -1.1366,-0.0946 -1.5979,0.0669 -2.2189,0.7766 -0.9717,1.1108 -5.5092,4.7622 -5.9181,4.7622 -0.1649,0 -0.2998,-7.15 -0.2998,-15.8887 V 2.5426 l 1.5414,0.9706 c 0.848,0.5337 2.2815,1.2864 3.1854,1.6732 L 22.963,5.889 V 4.81 C 22.963,3.9246 22.7445,3.6585 21.7451,3.3278 21.075,3.1058 19.6577,2.2664 18.5945,1.4621 L 16.6623,0 Z m 8.6159,2.3567 c 0,0.8955 0.1481,1.0428 1.0306,1.0278 0.8406,-0.0138 1.0523,-0.2067 1.149,-1.045 0.1068,-0.9235 0.0022,-1.0277 -1.0306,-1.0277 -1.0081,0 -1.149,0.1278 -1.149,1.0449 z m 5.2466,2.275 c 0,0.8263 0.2001,1.116 0.8574,1.2412 1.333,0.2541 1.7659,-0.0471 1.7659,-1.2285 0,-0.9968 -0.1125,-1.0902 -1.3117,-1.0902 -1.1958,0 -1.3116,0.0953 -1.3116,1.0775 z m -8.6193,2.473 c 0,1.2771 0.0356,1.3081 1.499,1.3081 1.4634,0 1.499,-0.031 1.499,-1.3081 0,-1.2771 -0.0356,-1.3081 -1.499,-1.3081 -1.4634,0 -1.499,0.031 -1.499,1.3081 z M 25.2067,6.9743 C 25.0032,7.0431 24.8368,8.01 24.8368,9.1233 v 2.0246 h 2.4359 2.4359 V 9.1271 7.1059 L 27.6426,6.9781 C 26.5059,6.9074 25.4098,6.9059 25.2067,6.9743 Z m 13.1212,0.9968 c 0,0.6851 0.1998,0.9343 0.7495,0.9343 0.5498,0 0.7495,-0.2492 0.7495,-0.9343 0,-0.6851 -0.1997,-0.9343 -0.7495,-0.9343 -0.5497,0 -0.7495,0.2492 -0.7495,0.9343 z m -3.7475,0.9343 c 0,0.8705 1.3022,1.0502 1.6204,0.2235 0.2526,-0.6566 -0.0491,-0.9709 -0.9335,-0.9709 -0.437,0 -0.6869,0.2717 -0.6869,0.7474 z m 49.0927,1.6123 c -0.7214,0.228 -2.1028,1.202 -3.0696,2.1644 -4.0781,4.0591 -3.8041,10.974 0.5872,14.8194 1.6898,1.4796 3.6119,2.0836 5.9908,1.8821 2.6596,-0.2253 4.5555,-1.2269 6.0725,-3.2074 5.771,-7.5379 -0.88,-18.4088 -9.5809,-15.6585 z M 19.6839,10.7016 C 18.5083,10.8175 18.466,10.8799 18.466,12.5 v 1.6789 l 1.7801,-0.114 1.78,-0.114 0.1128,-1.5398 c 0.1252,-1.7046 -0.2008,-1.9315 -2.455,-1.7095 z M 125.645,10.548 c 0,0.1058 -1.096,4.2442 -2.435,9.1958 -1.34,4.9517 -2.436,9.0904 -2.436,9.197 0,0.1065 0.545,0.1412 1.212,0.0766 l 1.212,-0.117 1.874,-6.8076 c 1.031,-3.7441 1.975,-6.6873 2.099,-6.5404 0.19,0.2261 1.827,6.0792 3.34,11.9465 0.405,1.5678 0.432,1.5884 2.067,1.5884 1.636,0 1.663,-0.021 2.068,-1.5884 0.226,-0.8738 0.564,-2.093 0.75,-2.7096 0.187,-0.6167 0.775,-2.8031 1.307,-4.8586 0.532,-2.0556 1.064,-3.9897 1.182,-4.298 0.119,-0.3083 1.094,2.5508 2.167,6.3535 l 1.951,6.9142 1.19,0.117 c 0.655,0.0646 1.19,0.0258 1.19,-0.0864 0,-0.1117 -0.485,-2.0144 -1.078,-4.2281 -0.593,-2.2136 -1.613,-6.0429 -2.267,-8.5096 -0.655,-2.4666 -1.28,-4.7883 -1.391,-5.1594 -0.154,-0.5206 -0.511,-0.6488 -1.563,-0.5606 l -1.364,0.114 -1.609,5.7929 c -0.884,3.1861 -1.785,6.4406 -2.001,7.2322 -0.216,0.7916 -0.502,1.3309 -0.635,1.1989 -0.132,-0.1323 -1.091,-3.3868 -2.13,-7.2322 l -1.889,-6.9918 -1.405,-0.1159 c -0.773,-0.0639 -1.406,-0.0295 -1.406,0.0766 z m 46.47,1.2539 v 1.2147 h 3.373 3.372 v 8.0353 8.0354 h 1.125 1.124 v -8.0354 -8.0353 h 3.373 3.373 v -1.1067 -1.107 l -7.871,-0.1076 -7.87,-0.108 z M 48.2218,11.3998 c -2.2587,1.1238 -3.1015,4.2393 -1.7595,6.5052 1.0415,1.7581 2.7814,2.3516 7.5457,2.5743 3.9521,0.185 4.3025,0.2639 5.0007,1.1246 0.9376,1.1564 0.7015,3.2549 -0.4741,4.2132 -0.6817,0.5553 -1.6148,0.654 -6.195,0.654 h -5.3924 v 1.3081 1.3081 l 4.7781,-0.009 c 6.0227,-0.0112 7.4352,-0.3285 8.9941,-2.0212 1.0969,-1.1911 1.218,-1.5499 1.218,-3.6077 0,-2.0865 -0.1076,-2.3926 -1.2356,-3.5176 -1.5657,-1.5615 -3.3548,-2.0518 -7.4943,-2.0544 -2.9988,-0.0019 -3.3795,-0.0852 -4.216,-0.9198 -1.107,-1.1036 -1.1501,-1.7061 -0.2046,-2.8718 0.6862,-0.8458 0.95,-0.8872 6.3708,-1.0027 l 5.6554,-0.1204 v -1.0943 -1.0943 l -5.715,0.0239 c -4.3673,0.0184 -5.9889,0.16 -6.8763,0.6018 z m 15.6478,6.3819 c 0.1147,6.2358 0.2129,7.1503 0.8915,8.3026 1.2409,2.106 2.6526,2.6834 7.1181,2.9106 l 3.9241,0.1996 V 27.833 26.4711 h -3.2102 c -5.8563,0 -6.1396,-0.4171 -6.1504,-9.0631 L 66.4344,10.7741 H 65.0876 63.7411 Z M 97.548,11.0544 c 0.005,0.1544 1.078,4.2326 2.386,9.0632 l 2.377,8.7828 h 1.421 1.421 l 1.908,-6.9784 c 1.049,-3.8383 2.019,-7.0883 2.155,-7.2225 0.136,-0.1346 0.33,0.0628 0.431,0.438 0.101,0.3752 0.991,3.6671 1.978,7.3159 l 1.794,6.6339 h 1.341 1.342 l 2.463,-9.1566 2.464,-9.1566 h -1.238 c -1.139,0 -1.27,0.1252 -1.659,1.5884 -0.954,3.5913 -3.026,10.9703 -3.226,11.4924 -0.199,0.5177 -1.023,-2.1097 -3.133,-9.9974 l -0.825,-3.0834 h -1.786 c -1.715,0 -1.796,0.0479 -2.028,1.2147 -0.436,2.1833 -3.316,12.2724 -3.463,12.1266 -0.224,-0.2231 -3.509,-12.2163 -3.509,-12.8102 0,-0.3577 -0.428,-0.5311 -1.311,-0.5311 -0.722,0 -1.308,0.126 -1.303,0.2803 z m 50.583,8.8763 v 9.1566 h 1.124 1.124 v -9.1566 -9.1566 h -1.124 -1.124 z m 8.318,-8.5313 c -2.087,1.0259 -2.957,3.9287 -1.883,6.2806 0.866,1.8968 2.624,2.5534 7.493,2.7997 5.158,0.2613 5.758,0.5819 5.693,3.0415 -0.068,2.5799 -0.476,2.7462 -7.079,2.8826 l -5.797,0.12 v 1.3208 1.3211 l 5.919,-0.1326 c 4.924,-0.1103 6.093,-0.2463 6.951,-0.8069 1.641,-1.073 2.492,-2.8001 2.494,-5.0627 0.001,-1.7644 -0.144,-2.1445 -1.234,-3.2317 -1.566,-1.5615 -3.355,-2.0518 -7.495,-2.0544 -2.999,-0.0019 -3.379,-0.0852 -4.216,-0.9198 -1.107,-1.1036 -1.15,-1.7061 -0.204,-2.8718 0.686,-0.8458 0.95,-0.8872 6.37,-1.0027 l 5.656,-0.1204 v -1.0943 -1.0943 l -5.715,0.0086 c -4.509,0.0068 -5.976,0.1368 -6.953,0.6167 z M 30.0028,12.9231 c -0.0746,0.3596 -0.0675,1.0327 0.0161,1.495 0.13,0.7213 0.386,0.8409 1.7947,0.8409 h 1.6425 v -1.495 -1.4949 h -1.659 c -1.2783,0 -1.6898,0.1498 -1.7943,0.654 z m 60.0412,0.8155 c 2.549,1.9588 3.618,5.7731 2.463,8.7899 -1.841,4.8059 -6.9785,6.0045 -10.3963,2.4252 -5.6449,-5.9125 1.5661,-16.1066 7.9333,-11.2151 z m -63.4687,0.6585 c -0.422,0.4209 -0.2567,0.8619 0.3226,0.8619 0.3092,0 0.5622,-0.1581 0.5622,-0.3517 0,-0.4713 -0.5854,-0.8088 -0.8848,-0.5102 z m 9.8088,0.1376 c -0.0731,0.2182 -0.0694,1.0591 0.0078,1.8687 l 0.1409,1.4717 h 1.8345 1.8344 V 16.0065 14.1378 H 38.359 c -1.0133,0 -1.9022,0.1786 -1.9749,0.3969 z M 22.963,18.6226 v 2.2424 h 1.3117 c 1.2805,0 1.3116,0.0355 1.3116,1.495 0,1.3454 -0.0937,1.4949 -0.9369,1.4949 -0.7495,0 -0.9369,0.1869 -0.9369,0.9344 0,0.7889 0.175,0.9343 1.1243,0.9343 H 25.961 V 23.2943 20.865 h 1.1243 1.1243 V 18.6226 16.3802 H 25.5863 22.963 Z m 7.1203,0 c 0,0.5483 0.25,0.7475 0.9369,0.7475 0.6869,0 0.9369,-0.1992 0.9369,-0.7475 0,-0.5483 -0.25,-0.7475 -0.9369,-0.7475 -0.6869,0 -0.9369,0.1992 -0.9369,0.7475 z m 3.8165,0.6234 c 0.0945,0.7972 0.3253,1.0061 1.149,1.0401 0.8878,0.037 1.0306,-0.1013 1.0306,-0.9971 0,-0.9116 -0.142,-1.0401 -1.149,-1.0401 -1.025,0 -1.1366,0.108 -1.0306,0.9971 z m -12.8105,2.9271 c 0,0.3084 0.2529,0.5606 0.5621,0.5606 0.3092,0 0.5621,-0.2522 0.5621,-0.5606 0,-0.3083 -0.2529,-0.5606 -0.5621,-0.5606 -0.3092,0 -0.5621,0.2523 -0.5621,0.5606 z m 12.0858,0.0834 c -0.9995,0.1237 -1.218,0.3143 -1.218,1.0614 0,0.7916 0.1716,0.9108 1.3116,0.9108 1.2075,0 1.3117,-0.089 1.3117,-1.1212 0,-0.6167 -0.042,-1.0943 -0.0937,-1.0615 -0.0517,0.0329 -0.642,0.1279 -1.3116,0.2105 z m -4.9655,3.2803 c 0,1.3009 0.009,1.308 1.6864,1.308 1.6774,0 1.6863,-0.0071 1.6863,-1.308 0,-1.301 -0.0089,-1.3081 -1.6863,-1.3081 -1.6774,0 -1.6864,0.0071 -1.6864,1.3081 z"
     id="path2" />
  <mask
     id="path-3-outside-1_112_979"
     maskUnits="userSpaceOnUse"
     x="236.854"
     y="49.3843"
     width="137"
     height="34"
     fill="#000000">
    <rect
       fill="#ffffff"
       x="236.854"
       y="49.3843"
       width="137"
       height="34"
       id="rect4" />
    <path
       fill-rule="evenodd"
       clip-rule="evenodd"
       d="m 247.418,51.8898 c -2.677,0.8215 -4.947,1.5691 -5.045,1.6613 -0.364,0.3436 -0.107,1.08 0.376,1.08 0.101,0 2.349,-0.6609 4.997,-1.4687 l 4.815,-1.4688 4.976,1.5202 c 2.776,0.8482 5.058,1.4941 5.162,1.461 0.473,-0.1502 0.613,-0.9304 0.205,-1.1441 -0.318,-0.1669 -10.235,-3.1585 -10.429,-3.1464 -0.105,0.0066 -2.381,0.684 -5.057,1.5055 z m -8.977,2.8252 c -0.304,0.2458 -0.475,1.339 -0.565,3.617 -0.252,6.339 1.743,12.4999 5.594,17.2733 1.367,1.6942 3.563,3.697 5.45,4.9703 1.163,0.7845 3.397,2.0403 3.631,2.0403 0.475,0 3.746,-2.0176 5.361,-3.3078 1.104,-0.8821 3.026,-2.7982 3.852,-3.8405 2.347,-2.9621 4.156,-6.8309 4.906,-10.4943 0.48,-2.3398 0.6,-3.7593 0.536,-6.3371 -0.063,-2.5453 -0.221,-3.7174 -0.534,-3.9547 -0.219,-0.1657 -0.532,-0.1905 -0.74,-0.0589 -0.078,0.0494 -1.378,2.6519 -2.89,5.7833 l -2.747,5.6935 -7.55,-0.0067 c -4.153,-0.0036 -7.581,-0.0402 -7.618,-0.0813 -0.036,-0.0412 -1.355,-2.5969 -2.93,-5.6795 -1.575,-3.0826 -2.947,-5.6492 -3.048,-5.7034 -0.269,-0.1442 -0.451,-0.122 -0.708,0.0865 z m 6.653,14.1099 c 3.207,6.2598 5.813,11.4 5.79,11.4225 -0.072,0.0724 -1.812,-1.1202 -2.858,-1.9586 -4.002,-3.2093 -6.797,-7.5612 -8.059,-12.5476 -0.567,-2.2432 -0.732,-3.5269 -0.787,-6.1418 -0.027,-1.2547 -0.019,-2.2532 0.017,-2.2188 0.036,0.0345 2.689,5.1844 5.897,11.4443 z m 20.84,-8.1558 c -0.346,5.3898 -1.977,9.8443 -5.065,13.8353 -0.904,1.1687 -2.891,3.1279 -4.124,4.0665 -1.077,0.8197 -2.483,1.7534 -2.483,1.6488 0,-0.0347 1.66,-3.1713 3.69,-6.9703 2.347,-4.3923 4.46,-8.5118 5.805,-11.314 l 2.114,-4.4068 0.087,0.706 c 0.053,0.4284 0.044,1.3849 -0.024,2.4345 z m 10.685,0.0345 c -0.491,0.2265 -0.8,0.5475 -1.009,1.0486 -0.134,0.3196 -0.157,1.0289 -0.155,4.7641 0.002,4.0498 0.017,4.4199 0.19,4.7941 0.226,0.4909 0.547,0.7998 1.048,1.0091 0.323,0.1348 1.109,0.157 5.55,0.157 h 5.175 v -0.6563 -0.6565 l -5.13,-0.028 -5.129,-0.028 -0.194,-0.2394 c -0.184,-0.227 -0.194,-0.4546 -0.194,-4.3741 0,-3.9195 0.01,-4.1471 0.194,-4.374 l 0.194,-0.2394 5.129,-0.0281 5.13,-0.028 V 61.1683 60.512 l -5.197,0.0022 c -4.835,0.002 -5.225,0.0152 -5.602,0.1894 z m 18.504,5.7906 v 5.9823 h 5.425 5.425 v -0.6591 -0.659 h -4.766 -4.765 V 69.1812 67.204 h 3.853 3.853 v -0.7098 -0.7097 h -3.853 -3.853 v -1.9772 -1.9772 h 4.765 4.766 V 61.171 60.512 h -5.425 -5.425 z m 18.623,-5.9146 c -0.037,0.0371 -0.067,2.7291 -0.067,5.9823 v 5.9146 h 0.709 0.71 v -2.2307 -2.2307 l 2.51,0.0056 2.509,0.0056 1.855,2.2251 1.855,2.2251 h 0.857 c 0.472,0 0.858,-0.0203 0.858,-0.0451 0,-0.0248 -0.821,-1.0172 -1.824,-2.2054 l -1.823,-2.1602 1.257,-0.0507 c 1.216,-0.049 1.268,-0.0605 1.639,-0.3607 0.815,-0.6605 0.798,-0.5923 0.832,-3.2399 0.028,-2.2063 0.016,-2.3969 -0.173,-2.7683 -0.255,-0.4997 -0.715,-0.8925 -1.204,-1.0284 -0.418,-0.1161 -10.386,-0.1524 -10.5,-0.0382 z m 19.096,0.5914 v 0.6591 h 2.636 2.637 v 5.3232 5.3232 h 0.658 0.658 l 0.026,-5.2979 0.026,-5.2978 2.611,-0.0271 2.611,-0.0271 V 61.1693 60.512 h -5.931 -5.932 z m 19.164,5.3232 v 5.9823 h 0.659 0.659 V 66.4942 60.512 h -0.659 -0.659 z m 9.632,0 v 5.9823 h 0.659 0.659 V 69.8402 67.204 l 1.952,0.0059 1.952,0.0059 2.18,2.6237 2.18,2.6238 0.896,0.0066 0.897,0.0066 -0.406,-0.4816 c -3.231,-3.8331 -4.574,-5.4638 -4.553,-5.529 0.013,-0.0434 1.108,-1.3736 2.432,-2.9559 1.324,-1.5824 2.407,-2.9042 2.407,-2.9375 0,-0.0333 -0.377,-0.0576 -0.837,-0.0539 l -0.836,0.0066 -2.18,2.6237 -2.18,2.6237 -1.952,0.006 -1.952,0.0059 V 63.1482 60.512 h -0.659 -0.659 z m -37.471,-4.3373 c 0.129,0.1845 0.158,0.5705 0.158,2.1338 0,1.8911 -0.002,1.9108 -0.249,2.1574 l -0.249,0.2489 h -4.067 c -4.04,0 -4.371,-0.0249 -4.584,-0.3447 -0.041,-0.0614 -0.075,-0.9977 -0.076,-2.0807 -0.002,-1.6916 0.022,-1.9954 0.166,-2.1547 0.158,-0.1741 0.43,-0.1854 4.456,-0.1854 h 4.287 z m -64.679,5.4273 c -0.243,0.635 -6.892,12.8991 -6.957,12.8328 -0.076,-0.0768 -4.755,-9.1596 -6.089,-11.8188 l -0.598,-1.1914 h 6.856 c 6.488,0 6.852,0.0095 6.788,0.1774 z"
       id="path6" />
  </mask>
</svg>
