<svg width="273" height="81" viewBox="0 0 273 81" fill="none" xmlns="http://www.w3.org/2000/svg">
<path d="M32.048 32.4295C32.048 22.1474 32.0607 11.8717 32.0352 1.58958C32.0352 0.83458 32.1887 0.591444 32.9885 0.617037C44.0064 0.936953 53.8598 4.46243 62.3504 11.5006C71.9927 19.4921 77.6808 29.755 79.3827 42.1933C79.6259 43.9657 79.7027 45.7508 79.8115 47.5359C79.8498 48.2078 79.6643 48.3933 78.9733 48.3933C68.8959 48.3677 58.8186 48.3741 48.7412 48.3805C48.4085 48.3805 48.0757 48.3933 47.743 48.3997L47.7751 48.3805L47.7622 48.3421C47.7558 43.4154 47.7494 38.4887 47.743 33.562C47.743 32.9094 47.4061 32.5831 46.7321 32.5831C41.8566 32.5831 36.9811 32.5703 32.0992 32.5639C32.0992 32.5127 32.0735 32.4679 32.0352 32.4295H32.048Z" fill="#2A9DC2"/>
<path d="M32.0465 32.4297C32.0849 32.4681 32.1041 32.5129 32.1105 32.5641C32.0977 37.5675 32.1041 42.571 32.0657 47.5681C32.0657 48.2527 32.2513 48.4255 32.9231 48.4191C37.6195 48.3935 42.3158 48.4063 47.0122 48.3999C47.2681 48.3999 47.5177 48.3615 47.7736 48.3359L47.7864 48.3743L47.7544 48.3935C47.7544 58.7012 47.7544 69.0089 47.7544 79.323C47.7544 80.2443 47.6776 80.3403 46.7627 80.3019C40.1852 80.0396 33.8573 78.7151 27.862 75.9319C23.3064 73.814 19.1795 71.082 15.4749 67.6844C11.5399 64.0694 8.32155 59.9233 5.76862 55.2333C3.20289 50.5177 1.51373 45.5079 0.643554 40.2292C0.342833 38.3929 0.106123 36.5438 0.112521 34.6755C0.112521 34.1444 0.0421117 33.607 0.00372174 33.0759C-0.0282699 32.66 0.1445 32.4489 0.579586 32.4745C0.784333 32.4873 0.989054 32.4745 1.1938 32.4745C11.1496 32.4745 21.099 32.4745 31.0548 32.4745C31.3875 32.4745 31.7202 32.4489 32.0529 32.4361L32.0465 32.4297Z" fill="#212B76"/>
<path d="M272.084 64.8808C270.26 64.8808 268.558 64.7273 266.901 64.9192C264.956 65.1496 263.881 64.4585 262.96 62.7374C261.284 59.6086 259.326 56.627 257.489 53.5878C256.99 52.756 256.926 52.756 256.414 53.607C254.284 57.1325 252.14 60.6451 250.035 64.1834C249.715 64.7209 249.37 64.9064 248.756 64.8936C246.734 64.8552 244.712 64.8808 242.69 64.8744C242.441 64.8744 242.185 64.9256 241.871 64.7529C242.479 63.7803 243.068 62.827 243.663 61.88C246.523 57.3308 249.37 52.7816 252.249 48.2452C252.556 47.7589 252.537 47.4198 252.236 46.9463C249.274 42.314 246.331 37.6688 243.387 33.03C243.17 32.6909 242.959 32.3454 242.741 31.9935C243.029 31.7439 243.324 31.8527 243.586 31.8527C245.633 31.8399 247.681 31.8655 249.728 31.8335C250.227 31.8271 250.509 31.9871 250.765 32.4221C252.627 35.5957 254.521 38.7565 256.402 41.9237C256.946 42.8386 256.997 42.8386 257.56 41.8981C259.428 38.7565 261.303 35.6149 263.152 32.4605C263.414 32.0063 263.702 31.8271 264.24 31.8399C266.313 31.8719 268.386 31.8527 270.459 31.8591C270.676 31.8591 270.971 31.7439 271.092 31.9679C271.22 32.1982 270.958 32.3774 270.843 32.5629C267.791 37.3808 264.745 42.1988 261.668 47.0039C261.38 47.4582 261.373 47.7717 261.668 48.226C265.059 53.5878 268.424 58.956 271.802 64.3306C271.886 64.4585 271.95 64.5929 272.11 64.8808H272.084Z" fill="#33C3F0"/>
<path d="M119.383 65.6046C111.686 65.6046 105.153 60.9466 102.875 53.8444C100.546 46.576 103.112 38.6548 109.126 34.2912C115.096 29.9659 125.18 29.5884 131.175 35.9227C131.591 36.3578 131.706 36.5946 131.2 37.0552C130.023 38.1174 128.884 39.2243 127.784 40.3568C127.381 40.7727 127.195 40.6703 126.843 40.3056C122.595 35.9355 115.601 35.9739 111.321 40.3632C107.808 43.9654 107.29 50.4917 110.163 54.8938C112.876 59.0463 118.513 60.8122 123.279 58.9951C125.013 58.3297 126.447 57.2292 127.643 55.8343C127.982 55.4376 128.174 55.3672 128.577 55.7767C129.716 56.9156 130.893 58.0161 132.083 59.0975C132.467 59.4494 132.493 59.6669 132.128 60.0636C128.718 63.8578 124.437 65.611 119.383 65.611V65.6046Z"/>
<path d="M187.746 51.7521C187.752 44.5988 195.084 40.4847 200.35 40.9646C203.645 41.2653 206.134 42.9864 208.124 45.5202C208.674 46.224 209.142 46.9854 209.583 47.766C209.884 48.2971 209.833 48.553 209.276 48.8857C204.88 51.5026 200.51 54.1579 196.127 56.8004C195.59 57.1246 195.549 57.5106 196.006 57.9585C198.693 60.5754 203.242 59.9612 205.392 56.6405C205.725 56.1286 205.955 56.0966 206.448 56.3589C207.625 56.9796 208.815 57.5746 210.037 58.1057C210.639 58.368 210.645 58.6239 210.325 59.1166C205.846 66.1164 195.449 67.7032 190.049 59.9868C188.526 57.8114 187.707 55.4056 187.739 51.7521H187.746ZM193.229 51.6434C193.248 52.0081 193.248 52.264 193.274 52.5199C193.357 53.4029 193.376 53.4093 194.157 52.9422C196.761 51.3682 199.371 49.7943 201.975 48.2267C202.794 47.734 202.807 47.6892 202.033 47.1198C200.286 45.8401 198.424 45.7889 196.53 46.7231C194.457 47.7468 193.293 49.3976 193.235 51.6562L193.229 51.6434Z"/>
<path d="M212.613 53.6276C212.613 50.0957 212.632 46.5702 212.6 43.0384C212.6 42.3921 212.779 42.2258 213.413 42.2514C214.744 42.3025 216.075 42.3089 217.405 42.2514C218.122 42.2194 218.442 42.3857 218.34 43.1599C218.276 43.6398 218.314 44.1325 218.34 44.6187C218.34 44.8043 218.224 45.073 218.468 45.1626C218.73 45.2586 218.794 44.9706 218.903 44.8235C219.542 43.9405 220.329 43.2239 221.27 42.6737C226.773 39.4425 233.171 42.6481 233.983 49.0528C234.092 49.9165 234.124 50.7803 234.124 51.6569C234.124 55.8286 234.111 59.9939 234.131 64.1656C234.131 64.7159 234.035 64.9206 233.427 64.9014C231.866 64.8566 230.304 64.8566 228.743 64.9014C228.161 64.9142 228.014 64.7415 228.02 64.172C228.046 60.1539 228.033 56.1421 228.033 52.124C228.033 51.8168 228.027 51.5097 228.001 51.2026C227.886 49.5071 227.304 48.061 225.582 47.4532C223.759 46.807 222.038 47.0757 220.605 48.4705C219.063 49.9741 218.692 51.9192 218.679 53.9603C218.66 57.3642 218.66 60.7617 218.685 64.1656C218.685 64.7287 218.564 64.9206 217.969 64.9014C216.433 64.8566 214.897 64.8566 213.362 64.9014C212.773 64.9142 212.588 64.7735 212.594 64.1528C212.626 60.6465 212.607 57.1467 212.607 53.6404L212.613 53.6276Z"/>
<path d="M175.977 59.5127C176.316 59.7238 176.604 59.6406 176.872 59.6406C180.174 59.647 183.475 59.6534 186.777 59.6406C187.295 59.6406 187.5 59.7494 187.481 60.3125C187.442 61.6177 187.449 62.923 187.481 64.2282C187.493 64.7017 187.391 64.8937 186.86 64.8937C180.871 64.8745 174.882 64.8745 168.9 64.8937C168.407 64.8937 168.299 64.7209 168.305 64.273C168.331 62.9678 168.324 61.6625 168.305 60.3573C168.305 59.9606 168.465 59.6982 168.721 59.4167C172.202 55.6673 175.669 51.9115 179.144 48.1557C179.31 47.9765 179.534 47.8293 179.604 47.4902C179.316 47.4774 179.048 47.4582 178.785 47.4582C175.663 47.4582 172.541 47.439 169.418 47.471C168.842 47.471 168.676 47.3367 168.695 46.748C168.74 45.4684 168.727 44.1887 168.695 42.909C168.682 42.4292 168.791 42.25 169.322 42.25C175.106 42.2692 180.89 42.2692 186.668 42.25C187.199 42.25 187.308 42.4356 187.295 42.9154C187.263 43.9392 187.212 44.9693 187.308 45.9802C187.391 46.94 187.02 47.5926 186.387 48.2644C183.021 51.8411 179.7 55.4561 176.367 59.0584C176.245 59.1864 176.136 59.3271 175.977 59.5063V59.5127Z"/>
<path d="M145.885 53.019C145.885 51.4066 145.853 49.7942 145.898 48.1882C145.917 47.5548 145.699 47.4076 145.117 47.4396C144.247 47.4844 143.377 47.4332 142.507 47.4588C142.059 47.4716 141.867 47.3565 141.88 46.8638C141.911 45.5329 141.905 44.2021 141.88 42.8776C141.873 42.4234 141.995 42.2378 142.481 42.257C143.402 42.289 144.324 42.2442 145.245 42.2762C145.75 42.2954 145.904 42.129 145.891 41.6236C145.866 39.7808 145.898 37.9381 145.866 36.1018C145.859 35.558 145.962 35.3276 146.569 35.3468C148.156 35.3916 149.743 35.3788 151.33 35.3468C151.842 35.334 151.976 35.5004 151.97 35.9994C151.944 37.8677 151.976 39.7361 151.944 41.598C151.938 42.1354 152.085 42.2954 152.622 42.2762C154.056 42.2378 155.489 42.2762 156.922 42.257C157.351 42.2506 157.504 42.3786 157.491 42.82C157.466 44.1765 157.459 45.5329 157.491 46.883C157.504 47.4012 157.28 47.4588 156.852 47.4588C155.418 47.4396 153.985 47.4652 152.552 47.4396C152.104 47.4332 151.931 47.5228 151.938 48.0219C151.963 50.8883 151.938 53.7484 151.95 56.6148C151.963 59.3341 154.254 59.9995 156.109 59.1486C156.621 58.9118 156.736 59.0334 156.877 59.4941C157.299 60.8889 157.741 62.2709 158.221 63.6466C158.394 64.1457 158.227 64.3248 157.792 64.4784C155.828 65.1694 153.806 65.4253 151.746 65.1054C148.188 64.5487 145.898 61.6759 145.859 57.7857C145.846 56.1989 145.859 54.6122 145.859 53.0318L145.885 53.019Z"/>
<path d="M140.455 53.589C140.455 57.1145 140.442 60.6464 140.467 64.1718C140.467 64.7541 140.307 64.9012 139.744 64.8884C138.183 64.8501 136.622 64.8565 135.067 64.8884C134.555 64.9012 134.357 64.7861 134.363 64.223C134.383 57.1145 134.383 50.0123 134.363 42.9038C134.363 42.3983 134.511 42.2448 135.016 42.2576C136.577 42.2896 138.138 42.296 139.693 42.2576C140.282 42.2448 140.474 42.3919 140.467 43.0126C140.435 46.5381 140.455 50.0699 140.455 53.5954V53.589Z"/>
<path d="M160.166 53.4737C160.166 49.9994 160.179 46.5187 160.154 43.0444C160.154 42.475 160.243 42.2319 160.896 42.2511C162.476 42.3022 164.063 42.283 165.65 42.2574C166.123 42.2511 166.251 42.3982 166.251 42.8653C166.238 49.9994 166.238 57.1271 166.251 64.2613C166.251 64.7987 166.066 64.8883 165.592 64.8819C164.031 64.8563 162.47 64.8435 160.915 64.8819C160.314 64.9011 160.134 64.7348 160.141 64.1269C160.173 60.5758 160.154 57.0184 160.154 53.4673L160.166 53.4737Z"/>
<path d="M137.318 39.0318C135.066 38.9934 133.466 37.3043 133.505 35.0137C133.543 32.851 135.303 31.1939 137.504 31.2515C139.615 31.3026 141.349 33.0814 141.336 35.1672C141.317 37.3427 139.519 39.0766 137.318 39.0318Z"/>
<path d="M159.305 35.1363C159.305 32.948 161 31.2525 163.188 31.2461C165.345 31.2461 167.117 32.9736 167.143 35.1171C167.168 37.2861 165.383 39.0456 163.176 39.0329C160.962 39.0201 159.317 37.3629 159.311 35.1363H159.305Z"/>
<path d="M47.7745 48.3432C47.5185 48.3623 47.269 48.4071 47.0131 48.4071C42.3167 48.4071 37.6203 48.3943 32.924 48.4263C32.2521 48.4263 32.0602 48.2536 32.0666 47.5754C32.1049 42.5719 32.105 37.5684 32.1114 32.5713C36.9869 32.5713 41.8624 32.5841 46.7443 32.5905C47.4183 32.5905 47.7553 32.9168 47.7553 33.5694C47.7617 38.4961 47.7681 43.4228 47.7745 48.3495V48.3432Z" fill="#284898"/>
</svg>
