<svg width="240" height="69" viewBox="0 0 240 69" fill="none" xmlns="http://www.w3.org/2000/svg">
<path d="M50.8777 34.5527C50.8777 24.3601 50.8777 14.1608 50.8777 3.96818C50.8777 3.82539 50.8777 3.6826 50.8777 3.5398C50.8639 3.11823 50.8639 3.11823 50.4521 3.10463C50.3766 3.10463 50.3079 3.10463 50.2324 3.10463C47.0062 3.10463 43.78 3.10463 40.5539 3.10463C39.8262 3.10463 39.888 3.07743 39.888 3.78459C39.888 24.2989 39.888 44.8133 39.888 65.3277C39.888 65.4501 39.888 65.5793 39.888 65.7016C39.888 65.8988 39.9635 66.0076 40.1763 66.0008C40.2999 66.0008 40.4303 66.0008 40.5539 66.0008C43.7594 66.0008 46.9719 66.0008 50.1775 66.0008C50.9257 66.0008 50.8708 66.0552 50.8708 65.2937C50.8708 55.0467 50.8708 44.7997 50.8708 34.5459L50.8777 34.5527ZM71.8754 39.8292V22.9254C71.8754 20.0152 71.8754 17.1118 71.8754 14.2016C71.8754 13.6644 71.8754 13.6644 71.3399 13.6576C71.3056 13.6576 71.2644 13.6576 71.2301 13.6576C68.0794 13.6576 64.9219 13.6576 61.7712 13.6576C61.0436 13.6576 61.1054 13.6304 61.1054 14.3444C61.1054 31.3433 61.1054 48.3355 61.1054 65.3345C61.1054 65.4569 61.1054 65.5861 61.1054 65.7084C61.1054 65.9056 61.1877 66.0076 61.3937 66.0076C61.5378 66.0076 61.682 66.0076 61.8261 66.0076C64.8876 66.0076 67.949 66.0076 71.0173 66.0076C71.9715 66.0076 71.8685 66.1232 71.8685 65.1917C71.8685 56.7398 71.8685 48.2879 71.8685 39.8292H71.8754ZM101.357 44.9561C101.357 47.2204 101.357 49.4778 101.357 51.7421C101.357 56.3182 101.357 60.8943 101.357 65.4705C101.357 66.0076 101.357 66.0076 101.893 66.0144C101.927 66.0144 101.968 66.0144 102.002 66.0144C105.153 66.0144 108.311 66.0144 111.461 66.0144C112.189 66.0144 112.127 66.0416 112.127 65.3277C112.127 51.7421 112.127 38.1565 112.127 24.5709C112.127 24.4485 112.127 24.3193 112.127 24.197C112.127 23.9998 112.045 23.8978 111.839 23.8978C111.715 23.8978 111.585 23.8978 111.461 23.8978C108.324 23.8978 105.187 23.8978 102.057 23.8978C101.309 23.8978 101.364 23.8434 101.364 24.6049C101.364 31.3909 101.364 38.1701 101.364 44.9561H101.357ZM91.8915 52.9184C91.8915 48.7911 91.8915 44.6637 91.8915 40.5364C91.8915 40.3936 91.8915 40.2508 91.8915 40.108C91.8915 39.938 91.8091 39.8428 91.6306 39.8428C91.5071 39.8428 91.3766 39.8428 91.2531 39.8428C88.1024 39.8428 84.9449 39.8428 81.7942 39.8428C81.0666 39.8428 81.1283 39.8156 81.1283 40.5296C81.1283 48.8047 81.1283 57.073 81.1283 65.3481C81.1283 65.4705 81.1283 65.5997 81.1283 65.722C81.1283 65.9192 81.2107 66.0212 81.4166 66.0212C81.5265 66.0212 81.6363 66.0212 81.7461 66.0212C84.9174 66.0212 88.0887 66.0212 91.26 66.0212C91.9395 66.0212 91.8983 66.0484 91.8983 65.3617C91.8983 61.2139 91.8983 57.073 91.8983 52.9252L91.8915 52.9184Z"/>
<path d="M238.198 21.6271C237.937 21.6407 237.951 21.8719 237.903 22.0215C237.312 24.0138 236.667 25.9857 236.043 27.9643C235.349 30.147 234.697 32.3433 234.011 34.5259C233.558 35.981 233.084 37.4226 232.624 38.8777C231.883 41.2303 231.155 43.5898 230.414 45.9492C229.988 47.316 229.542 48.6759 229.116 50.0426C228.389 52.3681 227.675 54.6935 226.947 57.0122C226.529 58.3449 226.096 59.6708 225.678 61.0035C225.204 62.5062 224.744 64.009 224.263 65.5117C224.078 66.0964 224.119 66.0012 223.598 66.008C220.262 66.008 216.926 66.008 213.59 66.008C213.013 66.008 212.999 65.9876 212.848 65.4437C212.333 63.601 211.805 61.7651 211.283 59.9224C210.713 57.9097 210.144 55.897 209.567 53.8912C209.176 52.5313 208.778 51.1781 208.386 49.825C207.872 48.0231 207.364 46.2144 206.849 44.4125C206.355 42.6786 205.847 40.9447 205.353 39.2041C204.982 37.8985 204.611 36.593 204.24 35.2807C204.227 35.2331 204.192 35.1923 204.117 35.0563C203.925 35.6887 203.76 36.2394 203.595 36.7902C203.163 38.2997 202.73 39.816 202.305 41.3255C201.79 43.1478 201.275 44.9701 200.753 46.7924C200.294 48.4107 199.813 50.0222 199.346 51.6337C198.831 53.422 198.33 55.2103 197.822 56.9986C197.397 58.4945 196.964 59.9904 196.539 61.4863C196.168 62.7918 195.797 64.0973 195.434 65.4097C195.276 65.9944 195.269 66.008 194.672 66.008C191.301 66.008 187.924 66.008 184.554 66.008C184.067 66.008 184.06 66.008 183.915 65.5525C183.208 63.2814 182.515 61.0035 181.801 58.7325C181.355 57.2978 180.881 55.8698 180.428 54.4351C179.715 52.1641 179.021 49.8862 178.314 47.6151C177.854 46.1464 177.36 44.6845 176.914 43.2158C176.241 40.9923 175.493 38.7893 174.841 36.5522C174.402 35.0563 173.894 33.5876 173.427 32.0985C172.699 29.7798 171.985 27.4476 171.258 25.1289C170.921 24.0546 170.578 22.9802 170.242 21.9059C170.201 21.7699 170.146 21.6339 170.118 21.4979C170.084 21.3347 170.146 21.2123 170.338 21.2055C170.448 21.2055 170.558 21.2055 170.668 21.2055C173.914 21.2055 177.161 21.2055 180.401 21.2055C180.902 21.2055 180.916 21.2055 181.053 21.6883C181.431 23.0278 181.801 24.3742 182.172 25.7205C182.673 27.5088 183.174 29.2971 183.675 31.0921C184.156 32.8124 184.629 34.5395 185.11 36.2598C185.501 37.6537 185.892 39.0477 186.277 40.4416C186.757 42.1619 187.238 43.8822 187.711 45.6093C188.103 47.0236 188.501 48.4311 188.892 49.8454C189.153 50.7906 189.414 51.7425 189.675 52.6876C189.723 52.8576 189.75 53.0276 189.901 53.2112C190.134 52.7896 190.203 52.3681 190.32 51.9669C190.793 50.3214 191.253 48.6623 191.713 47.01C192.269 45.0313 192.825 43.0526 193.388 41.0739C193.814 39.578 194.253 38.0889 194.679 36.593C195.228 34.6483 195.77 32.7036 196.326 30.759C196.745 29.2835 197.17 27.8011 197.596 26.3256C198.042 24.7821 198.488 23.2318 198.928 21.6883C199.058 21.2259 199.051 21.2191 199.552 21.2123C202.614 21.2123 205.682 21.2123 208.743 21.2123C209.251 21.2123 209.245 21.2123 209.389 21.7223C209.972 23.769 210.569 25.8089 211.153 27.8555C211.764 30.0042 212.361 32.1597 212.972 34.3015C213.356 35.6615 213.761 37.0146 214.152 38.3677C214.667 40.1696 215.175 41.9783 215.69 43.7802C216.198 45.5481 216.706 47.3228 217.214 49.0907C217.571 50.3418 217.935 51.5997 218.292 52.8508C218.312 52.9188 218.305 52.9936 218.449 53.0344C218.614 52.4633 218.779 51.8921 218.937 51.3209C219.39 49.689 219.85 48.0503 220.303 46.4116C220.756 44.7729 221.209 43.141 221.662 41.5023C222.108 39.884 222.561 38.2657 223.007 36.6474C223.392 35.2535 223.776 33.8596 224.161 32.4589C224.607 30.8406 225.06 29.2223 225.506 27.604C225.966 25.9313 226.426 24.2654 226.892 22.5927C226.995 22.2119 227.119 21.8379 227.208 21.4571C227.256 21.2531 227.359 21.1919 227.545 21.1987C227.654 21.1987 227.764 21.1987 227.874 21.1987C231.32 21.1987 234.766 21.1987 238.212 21.1987V21.6271H238.198Z"/>
<path d="M140.401 67.3001C140.387 67.1437 140.291 67.0961 140.147 67.0825C138.918 67.0145 137.724 66.7289 136.543 66.423C135.28 66.1034 134.072 65.6342 132.892 65.0834C131.574 64.4715 130.331 63.7507 129.157 62.9076C128.588 62.4996 128.018 62.0848 127.524 61.5885C127.215 61.2825 126.844 61.0581 126.549 60.7385C125.622 59.7594 124.751 58.7326 123.968 57.6379C123.213 56.584 122.554 55.4756 121.998 54.3061C121.167 52.5654 120.591 50.7499 120.179 48.8732C119.946 47.8125 119.822 46.7314 119.719 45.6502C119.623 44.6983 119.644 43.7531 119.637 42.808C119.637 41.7745 119.795 40.7477 119.925 39.721C120.103 38.3475 120.481 37.0283 120.859 35.7092C121.037 35.0769 121.305 34.4649 121.566 33.8529C122.211 32.3298 123.014 30.8883 123.982 29.542C124.737 28.4881 125.581 27.5157 126.501 26.5978C127.627 25.4758 128.849 24.4763 130.18 23.6128C131.574 22.7084 133.063 21.9741 134.628 21.3893C136.207 20.7977 137.827 20.3897 139.481 20.1314C141.197 19.8594 142.941 19.8118 144.671 19.9138C146.579 20.0294 148.453 20.3625 150.292 20.9065C152.702 21.6273 154.933 22.7084 156.992 24.1363C157.774 24.6803 158.495 25.3058 159.209 25.9314C159.82 26.4686 160.342 27.0805 160.904 27.6585C161.392 28.1549 161.811 28.726 162.216 29.2904C162.923 30.2831 163.582 31.3099 164.131 32.4046C165.064 34.2541 165.758 36.1852 166.183 38.2115C166.389 39.1702 166.519 40.1358 166.636 41.1149C166.767 42.23 166.705 43.3316 166.719 44.4399C166.746 45.8542 166.506 47.2481 166.245 48.6352C165.874 50.5391 165.243 52.3614 164.433 54.1225C163.698 55.7 162.765 57.1687 161.694 58.549C160.898 59.5758 159.998 60.5141 159.037 61.3777C157.63 62.6424 156.086 63.7303 154.383 64.5803C153.285 65.131 152.18 65.6614 151.006 66.0422C149.579 66.5046 148.116 66.8105 146.647 67.0757C146.503 67.1029 146.359 67.0893 146.215 67.0893C146.064 67.0893 145.975 67.1505 145.961 67.3001H140.415H140.401ZM143.092 29.9296C141.76 29.848 140.422 30.0792 139.138 30.5075C137.779 30.9631 136.523 31.6227 135.404 32.5338C134.271 33.4518 133.317 34.5193 132.576 35.7568C131.23 38.0007 130.661 40.4757 130.503 43.0596C130.455 43.8687 130.551 44.6711 130.64 45.4666C130.791 46.7178 131.059 47.9553 131.505 49.1588C132.095 50.7431 132.953 52.1574 134.065 53.4221C135.013 54.4965 136.18 55.3124 137.449 55.9856C138.939 56.7743 140.559 57.1347 142.22 57.2707C143.462 57.3795 144.705 57.2639 145.927 56.9851C147.753 56.5772 149.414 55.836 150.862 54.6461C151.741 53.9253 152.544 53.1298 153.203 52.205C154.081 50.9675 154.727 49.6144 155.173 48.1661C155.612 46.7382 155.811 45.2762 155.846 43.7939C155.873 42.8624 155.77 41.9444 155.64 41.0197C155.434 39.6258 155.029 38.2999 154.425 37.0351C153.656 35.4168 152.613 34.0025 151.226 32.8262C150.423 32.1462 149.572 31.5411 148.624 31.1059C146.888 30.3035 145.062 29.8412 143.085 29.9296H143.092Z"/>
<path d="M25.0971 1.7041C25.1108 1.86049 25.2069 1.90809 25.3511 1.92169C26.6553 2.00328 27.9046 2.35006 29.1333 2.77164C30.6228 3.27481 31.9751 4.00236 33.1695 5.0155C33.2518 5.0835 33.3479 5.13109 33.4372 5.19909C33.849 5.50507 33.8627 5.62066 33.595 6.04224C33.2518 6.58621 32.9086 7.13697 32.5654 7.68094C31.5358 9.29924 30.5061 10.9175 29.4696 12.5358C29.147 13.039 29.1333 13.0458 28.6459 12.7058C27.884 12.1687 27.0534 11.7403 26.1199 11.6723C25.0834 11.5907 24.0332 11.4615 23.0173 11.8831C22.0494 12.2843 21.4316 12.9778 21.0747 13.923C20.8482 14.5281 20.7315 15.1537 20.7383 15.8132C20.7521 17.3772 20.7383 18.9343 20.7383 20.4982C20.7383 20.607 20.7452 20.7158 20.7383 20.8245C20.7177 21.0897 20.8138 21.2325 21.109 21.2121C21.2325 21.2053 21.363 21.2121 21.4865 21.2121C24.8431 21.2121 28.1929 21.2121 31.5495 21.2121C32.1535 21.2121 32.181 21.2325 32.2634 21.8241C32.2771 21.9465 32.2702 22.0757 32.2702 22.1981C32.2702 24.6595 32.2702 27.1142 32.2702 29.5756C32.2702 29.63 32.2702 29.6844 32.2702 29.7388C32.2496 30.5276 32.1947 30.5888 31.4122 30.5888C28.1311 30.5888 24.85 30.5888 21.5689 30.5888C21.4453 30.5888 21.3149 30.5888 21.1914 30.5888C20.8985 30.5978 20.7498 30.7542 20.7452 31.0579C20.7452 31.2007 20.7452 31.3435 20.7452 31.4863C20.7452 42.6308 20.7452 53.7821 20.7452 64.9267C20.7452 65.2123 20.7315 65.4978 20.6491 65.7766C20.601 65.9398 20.5324 66.0282 20.3539 66.0214C20.2441 66.0214 20.1343 66.0214 20.0244 66.0214C16.8188 66.0214 13.6064 66.0214 10.4008 66.0214C10.3459 66.0214 10.291 66.0214 10.236 66.0214C9.92029 66.0169 9.76013 65.8537 9.75555 65.5318C9.75555 65.4094 9.75555 65.2803 9.75555 65.1579C9.75555 53.8841 9.75555 42.6104 9.75555 31.3367C9.75555 30.5072 9.83106 30.582 9.00048 30.582C6.91376 30.582 4.83389 30.582 2.74717 30.582C2.62361 30.582 2.49319 30.582 2.36963 30.582C2.14311 30.5888 2.02642 30.5004 2.04015 30.2692C2.04015 30.1604 2.04015 30.0516 2.04015 29.9428C2.04015 27.2502 2.04015 24.5575 2.04015 21.8649C2.04015 21.8105 2.04015 21.7561 2.04015 21.7017C2.04473 21.3798 2.2026 21.2144 2.51378 21.2053C2.62361 21.2053 2.73344 21.2053 2.84326 21.2053C4.92999 21.2053 7.00986 21.2053 9.09658 21.2053C9.22014 21.2053 9.35056 21.2053 9.47412 21.2053C9.68004 21.2053 9.76928 21.1033 9.76241 20.9061C9.76241 20.7837 9.76241 20.6546 9.76241 20.5322C9.76241 18.7575 9.76241 16.976 9.76241 15.2013C9.76928 13.3654 10.0438 11.5771 10.6342 9.83641C11.0872 8.50369 11.7942 7.30696 12.6728 6.19863C13.6819 4.92031 14.9518 3.95477 16.3795 3.19321C17.6082 2.53365 18.9399 2.13248 20.3265 1.93529C20.4775 1.91489 20.6216 1.90809 20.6354 1.7177H25.0971V1.7041Z"/>
<path d="M50.8786 34.5529C50.8786 44.7999 50.8786 55.0468 50.8786 65.3006C50.8786 66.0622 50.9335 66.0078 50.1853 66.0078C46.9797 66.0078 43.7673 66.0078 40.5617 66.0078C40.4381 66.0078 40.3077 66.0078 40.1841 66.0078C39.9782 66.0078 39.8958 65.899 39.8958 65.7086C39.8958 65.5862 39.8958 65.457 39.8958 65.3346C39.8958 44.8203 39.8958 24.3059 39.8958 3.79154C39.8958 3.07759 39.8341 3.11159 40.5617 3.11159C43.7879 3.11159 47.014 3.11159 50.2402 3.11159C50.3157 3.11159 50.3844 3.11159 50.4599 3.11159C50.8717 3.12518 50.8717 3.12518 50.8855 3.54676C50.8855 3.68955 50.8855 3.83234 50.8855 3.97513C50.8855 14.1677 50.8855 24.3671 50.8855 34.5597L50.8786 34.5529Z"/>
<path d="M71.8699 39.829C71.8699 48.2809 71.8699 56.7328 71.8699 65.1914C71.8699 66.123 71.9729 66.0074 71.0187 66.0074C67.9573 66.0074 64.8958 66.0074 61.8275 66.0074C61.6834 66.0074 61.5392 66.0074 61.3951 66.0074C61.1891 66.0074 61.0999 65.9054 61.1068 65.7082C61.1068 65.5858 61.1068 65.4566 61.1068 65.3342C61.1068 48.3353 61.1068 31.3431 61.1068 14.3441C61.1068 13.6302 61.045 13.6574 61.7726 13.6574C64.9233 13.6574 68.0808 13.6574 71.2315 13.6574C71.2658 13.6574 71.307 13.6574 71.3413 13.6574C71.8699 13.6574 71.8768 13.6574 71.8768 14.2013C71.8768 17.1116 71.8768 20.015 71.8768 22.9252V39.829H71.8699Z"/>
<path d="M101.351 44.9566C101.351 38.1706 101.351 31.3915 101.351 24.6055C101.351 23.8439 101.296 23.8983 102.044 23.8983C105.181 23.8983 108.318 23.8983 111.448 23.8983C111.571 23.8983 111.702 23.8983 111.825 23.8983C112.031 23.8983 112.121 24.0003 112.114 24.1975C112.114 24.3199 112.114 24.4491 112.114 24.5715C112.114 38.157 112.114 51.7426 112.114 65.3282C112.114 66.0422 112.176 66.015 111.448 66.015C108.297 66.015 105.14 66.015 101.989 66.015C101.955 66.015 101.913 66.015 101.879 66.015C101.351 66.015 101.344 66.015 101.344 65.471C101.344 60.8949 101.344 56.3188 101.344 51.7426C101.344 49.4784 101.344 47.2209 101.344 44.9566H101.351Z"/>
<path d="M91.8846 52.9185C91.8846 57.0662 91.8846 61.2072 91.8846 65.3549C91.8846 66.0417 91.9258 66.0145 91.2462 66.0145C88.0749 66.0145 84.9036 66.0145 81.7324 66.0145C81.6225 66.0145 81.5127 66.0145 81.4029 66.0145C81.197 66.0145 81.1077 65.9125 81.1146 65.7153C81.1146 65.5929 81.1146 65.4637 81.1146 65.3413C81.1146 57.0662 81.1146 48.7979 81.1146 40.5228C81.1146 39.8089 81.0528 39.8361 81.7804 39.8361C84.9311 39.8361 88.0886 39.8361 91.2393 39.8361C91.3629 39.8361 91.4933 39.8361 91.6169 39.8361C91.7953 39.8361 91.8777 39.9313 91.8777 40.1013C91.8777 40.244 91.8777 40.3868 91.8777 40.5296C91.8777 44.657 91.8777 48.7843 91.8777 52.9117L91.8846 52.9185Z"/>
</svg>
