<svg width="314" height="53" viewBox="0 0 314 53" fill="none" xmlns="http://www.w3.org/2000/svg">
<g clip-path="url(#clip0_3846_56640)">
<path d="M0.867188 1.30957H11.7231V21.1092H31.748V1.30957H42.6039V51.3527H31.748V31.2596H11.7231V51.3527H0.867188V1.30957Z"/>
<path d="M145.785 1.30957H156.641V21.1092H176.666V1.30957H187.522V51.3527H176.666V31.2596H156.641V51.3527H145.785V1.30957Z"/>
<path d="M68.5495 0.952148H78.5584L99.7056 51.3532H88.3555L83.8452 40.1291H62.9804L58.47 51.3532H47.4023L68.5495 0.952148ZM79.9701 30.4082L73.4128 14.1805L66.8555 30.4082H79.9701Z"/>
<path d="M100.414 44.0656L106.83 36.2703C111.27 39.9854 115.922 42.3476 121.561 42.3476C126.001 42.3476 128.683 40.5581 128.683 37.6304V37.4872C128.683 34.6955 126.989 33.271 118.745 31.1236C108.807 28.5466 102.39 25.7621 102.39 15.8264V15.6833C102.39 6.5995 109.583 0.59375 119.662 0.59375C126.855 0.59375 132.989 2.88438 137.993 6.95741L132.354 15.2466C127.984 12.1757 123.679 10.3146 119.521 10.3146C115.364 10.3146 113.176 12.2473 113.176 14.674V14.8171C113.176 18.1028 115.293 19.1765 123.82 21.3955C133.829 24.0441 139.469 27.6876 139.469 36.4063V36.5495C139.469 46.4851 131.994 52.0685 121.349 52.0685C113.875 52.0685 106.329 49.42 100.414 44.0585V44.0656Z"/>
<path d="M225.102 1.30957H262.328V11.102H235.894V21.2524H259.159V31.0448H235.894V41.5531H262.688V51.3455H225.109V1.30957H225.102Z"/>
<path d="M283.404 31.6246L264.438 1.30957H277.129L288.902 21.4027L300.887 1.30957H313.226L294.26 31.4099V51.3598H283.404V31.6246Z"/>
<path d="M205.674 35.9913L198.093 28.3105L190.52 35.9913H205.674Z" fill="#007DC3"/>
<path d="M190.52 35.9912L198.093 43.672L205.674 35.9912H190.52Z" fill="#0085C9"/>
<path d="M213.248 43.672L205.675 35.9912L198.094 43.672H213.248Z" fill="#008ECF"/>
<path d="M198.094 43.6719L205.675 51.3526L213.248 43.6719H198.094Z" fill="#0098D7"/>
<path d="M220.823 51.3526L213.25 43.6719L205.676 51.3526H220.823Z" fill="#00ADE5"/>
<path d="M205.677 16.8721L198.005 24.6531L190.332 16.8721H205.677Z"/>
<path d="M190.332 16.8718L198.005 9.09082L205.677 16.8718H190.332Z"/>
<path d="M213.342 9.09082L205.676 16.8718L198.004 9.09082H213.342Z"/>
<path d="M198.004 9.09056L205.676 1.30957L213.342 9.09056H198.004Z"/>
<path d="M221.014 1.30957L213.341 9.09056L205.676 1.30957H221.014Z"/>
</g>
<defs>
<clipPath id="clip0_3846_56640">
<rect width="312.358" height="51.4748" transform="translate(0.867188 0.59375)"/>
</clipPath>
</defs>
</svg>
