<svg width="288" height="89" viewBox="0 0 288 89" fill="none" xmlns="http://www.w3.org/2000/svg">
<path d="M89.0367 53.206C88.457 52.7164 87.8743 52.2268 87.2976 51.7342C84.5463 49.3794 81.792 47.0216 79.0437 44.6637C75.4754 41.6001 71.9132 38.5304 68.3419 35.4727C65.3293 32.8956 60.7367 32.9107 57.7722 35.5508C55.8168 37.2899 53.9366 39.1101 52.0263 40.9002C50.2211 42.5883 48.422 44.2793 46.6228 45.9733C43.9136 48.5234 41.2103 51.0794 38.5011 53.6265C36.4046 55.5999 34.299 57.5612 32.2025 59.5346C29.2139 62.346 26.2344 65.1663 23.2458 67.9777C21.1132 69.9841 18.9746 71.9785 16.8421 73.9849C13.8024 76.8444 10.7658 79.7098 7.72915 82.5752C5.51249 84.6657 3.29582 86.7532 1.07616 88.8438C0.99206 88.9248 0.892959 88.9879 0.71875 88.9999C0.802851 88.8858 0.877934 88.7627 0.974049 88.6605C2.72815 86.7833 4.47926 84.906 6.23937 83.0348C7.9304 81.2326 9.62445 79.4365 11.3185 77.6403C13.8685 74.9341 16.4246 72.2308 18.9717 69.5216C20.945 67.4251 22.9064 65.3195 24.8797 63.223C27.7091 60.2164 30.5445 57.2188 33.3739 54.2152C35.3473 52.1187 37.3117 50.0162 39.285 47.9197C42.1294 44.898 44.9798 41.8794 47.8273 38.8578C49.9328 36.6231 52.0864 34.4335 54.1318 32.1447C56.8531 29.1021 56.9432 24.5997 54.306 21.4489C52.0564 18.7637 49.7436 16.1325 47.4638 13.4713C45.4965 11.1766 43.5351 8.87281 41.5678 6.57806C40.0059 4.75788 38.438 2.9407 36.8731 1.12352C36.804 1.04242 36.75 0.949304 36.768 0.787109C37.1825 1.13553 37.603 1.47794 38.0115 1.83237C41.3785 4.72484 44.7396 7.62331 48.1096 10.5128C50.4044 12.4801 52.7051 14.4415 55.0029 16.4058C55.97 17.2318 56.9012 18.0999 57.9104 18.8718C59.9168 20.4036 62.1965 20.8542 64.6535 20.3286C65.936 20.0552 67.0984 19.4785 68.1046 18.6225C70.6396 16.4569 73.1717 14.2823 75.7037 12.1137C78.0886 10.0682 80.4764 8.02279 82.8583 5.97433C84.7145 4.37942 86.5708 2.78451 88.427 1.1896C88.5351 1.09648 88.6492 1.00938 88.8535 0.97934C88.7513 1.13853 88.6643 1.31274 88.5411 1.45391C86.8831 3.38222 85.2161 5.30153 83.5581 7.23284C81.8851 9.18218 80.2301 11.1405 78.5571 13.0899C76.6198 15.3456 74.6555 17.5803 72.7332 19.854C71.8681 20.8752 70.8889 21.8123 70.2612 23.0228C68.9036 25.6419 68.9036 28.2611 70.2612 30.8802C70.901 32.1117 71.9071 33.0578 72.7812 34.1061C74.2109 35.8181 75.6797 37.4972 77.1334 39.1912C78.7133 41.0294 80.2902 42.8676 81.8731 44.7058C83.5942 46.7062 85.3183 48.7036 87.0393 50.704C87.7362 51.515 88.424 52.3319 89.1178 53.1459C89.0908 53.173 89.0667 53.197 89.0397 53.224L89.0367 53.206Z"/>
<path d="M106.859 27.5223H103.51C103.498 27.2699 103.477 27.0387 103.477 26.8074C103.477 23.6866 103.468 20.5629 103.477 17.4422C103.483 14.817 105.228 13.0359 107.847 13.0118C110.706 12.9848 113.563 13.0058 116.422 13.0058C118.2 13.0058 119.978 13.0058 121.754 13.0058C122.012 13.0058 122.267 13.0058 122.568 13.0058V27.5042H119.252V16.3699H114.731V27.4982H111.376V16.3579C111.067 16.3428 110.832 16.3248 110.598 16.3248C109.805 16.3218 109.012 16.3248 108.219 16.3248C107.096 16.3248 106.856 16.5621 106.856 17.6614C106.856 20.662 106.856 23.6656 106.856 26.6662C106.856 26.9245 106.856 27.1858 106.856 27.5253L106.859 27.5223Z"/>
<path d="M234.367 13.0593V16.3212H233.556C230.288 16.3212 227.02 16.3212 223.756 16.3212C223.539 16.3212 223.32 16.3062 223.107 16.3362C222.677 16.3963 222.245 16.7567 222.206 17.1532C222.161 17.6428 222.194 18.1414 222.194 18.7001H234.316C234.352 18.9103 234.4 19.0665 234.403 19.2227C234.415 20.5683 234.445 21.9139 234.418 23.2565C234.376 25.2719 233.28 26.7497 231.397 27.3625C231.06 27.4706 230.691 27.5307 230.336 27.5307C226.732 27.5427 223.131 27.5397 219.526 27.5397C219.388 27.5397 219.25 27.5096 219.079 27.4916V24.2387C219.343 24.2267 219.599 24.2027 219.851 24.2027C222.999 24.2027 226.146 24.2027 229.291 24.2027C229.507 24.2027 229.727 24.2177 229.94 24.1907C230.445 24.1216 230.808 23.7341 230.853 23.2265C230.871 23.0132 230.859 22.794 230.859 22.5777C230.859 22.3645 230.859 22.1512 230.859 21.8418C228.853 21.7878 226.891 21.8238 224.933 21.8178C222.996 21.8118 221.055 21.8178 219.082 21.8178C219.064 21.5204 219.04 21.3102 219.04 21.0999C219.037 19.8264 219.031 18.5529 219.04 17.2824C219.058 14.8374 220.737 13.0533 223.179 13.0202C226.804 12.9692 230.433 13.0082 234.061 13.0112C234.133 13.0112 234.202 13.0323 234.361 13.0593H234.367Z"/>
<path d="M158.678 13.0089C158.702 13.2702 158.729 13.4324 158.729 13.5976C158.729 15.2526 158.729 16.9106 158.729 18.5656C158.729 19.3946 158.573 20.1845 158.153 20.9114C157.768 21.5782 157.327 22.0017 156.14 22.7436C156.909 24.3025 157.684 25.8733 158.495 27.5163H155.182C154.563 26.3539 153.941 25.1945 153.326 24.0291C152.965 23.3483 152.407 23.0069 151.65 23.0049C149.992 23.0049 148.337 23.0049 146.679 23.0049C146.42 23.0049 146.162 23.0049 145.832 23.0049V27.4953H142.549C142.537 27.27 142.519 27.0387 142.519 26.8075C142.519 23.6627 142.561 20.5179 142.501 17.3762C142.459 15.2015 144.201 12.9939 146.796 13.0059C148.595 13.0149 150.397 13.0059 152.196 13.0059C154.068 13.0059 155.942 13.0059 157.813 13.0059H158.672L158.678 13.0089ZM155.335 16.3249H154.5C152.127 16.3249 149.754 16.3249 147.382 16.3249C147.189 16.3249 146.997 16.3159 146.808 16.3309C146.297 16.3729 145.862 16.7274 145.838 17.22C145.799 18.0009 145.826 18.7848 145.826 19.5928C146.093 19.6108 146.279 19.6349 146.468 19.6349C149.034 19.6349 151.599 19.6349 154.164 19.6349C154.332 19.6349 154.5 19.6349 154.665 19.6138C155.047 19.5688 155.314 19.3435 155.326 18.9711C155.356 18.118 155.335 17.262 155.335 16.3249Z"/>
<path d="M287.37 27.5214H284.087C283.892 27.182 283.67 26.8185 283.468 26.4401C282.973 25.509 282.477 24.5778 282.003 23.6347C281.777 23.1842 281.483 22.9799 280.942 22.9889C279.119 23.025 277.293 23.0009 275.467 23.0039C275.232 23.0039 275.001 23.028 274.692 23.046V27.5003H271.376V26.7915C271.376 23.6467 271.412 20.502 271.364 17.3572C271.331 15.1736 273.067 13.047 275.533 13.005C275.725 13.002 275.917 13.002 276.109 13.002C279.639 13.002 283.168 13.002 286.7 13.002C286.961 13.002 287.223 13.002 287.529 13.002C287.556 13.2362 287.598 13.4164 287.598 13.5997C287.604 15.2306 287.595 16.8646 287.601 18.4955C287.607 19.8892 287.169 21.0907 286.084 22.0037C285.775 22.2621 285.421 22.4663 285.009 22.7486C285.772 24.2895 286.541 25.8454 287.367 27.5184L287.37 27.5214ZM274.704 19.5828C274.974 19.6039 275.184 19.6309 275.392 19.6309C277.939 19.6309 280.483 19.6309 283.03 19.6309C283.198 19.6309 283.366 19.6309 283.534 19.6099C283.916 19.5648 284.18 19.3426 284.192 18.9641C284.222 18.1081 284.201 17.252 284.201 16.3209H283.432C282.255 16.3209 281.077 16.3209 279.903 16.3209C278.557 16.3209 277.212 16.3149 275.869 16.3209C275.184 16.3239 274.761 16.6363 274.722 17.249C274.674 18.009 274.71 18.7719 274.71 19.5798L274.704 19.5828Z"/>
<path d="M266.071 27.507V23.9207H257.256V27.501H253.946C253.931 27.3208 253.904 27.1586 253.904 26.9964C253.904 23.7555 253.889 20.5176 253.91 17.2768C253.922 15.3484 255.183 13.6784 256.961 13.1919C257.373 13.0777 257.811 13.0176 258.241 13.0146C261.818 12.9996 265.395 13.0056 268.973 13.0086C269.09 13.0086 269.207 13.0297 269.318 13.0417C269.477 13.5853 269.504 26.7742 269.345 27.507H266.074H266.071ZM266.023 16.3547C265.87 16.3366 265.753 16.3126 265.639 16.3126C263.218 16.3126 260.797 16.3126 258.376 16.3126C258.232 16.3126 258.088 16.3216 257.947 16.3486C257.547 16.4267 257.274 16.679 257.265 17.0755C257.238 18.1959 257.256 19.3162 257.256 20.4786H266.023V16.3547Z"/>
<path d="M140.529 13.009C140.547 13.3124 140.571 13.5437 140.571 13.778C140.571 16.8026 140.571 19.8242 140.571 22.8488C140.571 24.2215 140.22 25.453 139.157 26.4081C138.418 27.0689 137.577 27.5224 136.58 27.5345C133.915 27.5615 131.251 27.5795 128.587 27.5345C126.509 27.4984 124.673 25.6963 124.613 23.6178C124.55 21.4131 124.553 19.2025 124.607 16.9948C124.661 14.8472 126.382 13.1862 128.605 13.0211C128.821 13.006 129.038 13.009 129.254 13.009C132.735 13.009 136.213 13.009 139.694 13.009H140.526H140.529ZM137.162 16.325C136.82 16.325 136.559 16.325 136.297 16.325C134.327 16.325 132.36 16.325 130.389 16.325C129.885 16.325 129.38 16.298 128.878 16.319C128.233 16.346 127.932 16.6164 127.926 17.2471C127.905 19.2625 127.905 21.281 127.926 23.2964C127.932 23.9361 128.224 24.2125 128.875 24.2155C131.323 24.2275 133.774 24.2215 136.222 24.2185C136.318 24.2185 136.414 24.2155 136.508 24.1945C136.922 24.1074 137.132 23.8881 137.189 23.4706C137.21 23.3294 137.204 23.1822 137.204 23.0381C137.204 21.0226 137.204 19.0042 137.204 16.9888C137.204 16.7996 137.18 16.6104 137.162 16.325Z"/>
<path d="M205.125 24.2009H213.697C213.76 22.9304 213.691 21.6689 213.736 20.4254C214.28 20.2572 216.106 20.2272 216.959 20.3593C217.094 20.891 217.128 26.6128 216.992 27.4959H201.734C201.719 27.3337 201.692 27.1955 201.692 27.0574C201.692 23.7925 201.668 20.5245 201.701 17.2596C201.719 15.5596 202.545 14.2891 204.029 13.4661C204.63 13.1327 205.299 13.0125 205.975 13.0125C209.339 13.0035 212.7 13.0065 216.064 13.0125C216.157 13.0125 216.247 13.0366 216.434 13.0636C216.467 14.1148 216.446 15.1571 216.446 16.2864C216.157 16.3015 215.905 16.3255 215.653 16.3255C212.649 16.3255 209.649 16.3255 206.645 16.3255C206.477 16.3255 206.309 16.3195 206.14 16.3255C205.413 16.3615 205.044 16.728 205.041 17.4639C205.029 19.1699 205.038 20.873 205.038 22.579C205.038 22.9635 205.032 23.3479 205.044 23.7324C205.05 23.8886 205.095 24.0448 205.125 24.2009Z"/>
<path d="M176.533 27.5223H173.223C173.184 25.66 173.211 23.8188 173.205 21.9806C173.199 20.1334 173.205 18.2862 173.205 16.4029C173.004 16.3729 172.844 16.3248 172.685 16.3248C170.186 16.3188 167.69 16.3158 165.191 16.3248C164.323 16.3248 164.047 16.6102 164.044 17.5173C164.035 20.5419 164.041 23.5665 164.041 26.5912C164.041 26.8765 164.041 27.1588 164.041 27.5463C163.434 27.5463 162.89 27.5463 162.35 27.5463C161.809 27.5463 161.302 27.5463 160.719 27.5463C160.704 27.2489 160.68 27.0147 160.68 26.7834C160.68 23.6386 160.722 20.4938 160.665 17.3491C160.623 15.0964 162.398 13.0149 164.9 13.0059C165.068 13.0059 165.236 13.0059 165.404 13.0059C168.838 13.0059 172.274 13.0059 175.707 13.0059C175.965 13.0059 176.223 13.0059 176.533 13.0059V27.5223Z"/>
<path d="M199.675 13.045V27.5044H196.416C196.413 26.5823 196.404 25.6571 196.404 24.729C196.404 23.8159 196.404 22.9028 196.404 21.9928V16.397C196.185 16.37 196.005 16.331 195.822 16.331C193.347 16.328 190.875 16.325 188.4 16.331C187.493 16.331 187.195 16.6403 187.195 17.5504C187.192 20.5991 187.195 23.6507 187.195 26.6994V27.5134H183.894C183.885 27.2821 183.867 27.0508 183.867 26.8225C183.867 23.6537 183.858 20.4819 183.867 17.3131C183.873 14.8862 185.489 13.1862 187.91 13.024C188.078 13.012 188.247 13.015 188.415 13.015C191.923 13.015 195.428 13.015 198.936 13.015C199.171 13.015 199.405 13.036 199.681 13.051L199.675 13.045Z"/>
<path d="M251.884 13.072V16.3189H245.979V27.4953H242.618V16.346C240.516 16.2889 238.488 16.349 236.422 16.3099V13.1261C236.96 12.9789 250.668 12.9279 251.884 13.072Z"/>
<path d="M181.809 27.5221H178.673C178.508 27.0025 178.475 13.8708 178.64 13.0508H181.812V27.5221H181.809Z"/>
<path d="M154.859 42.2253V35.5723C155.427 35.5723 155.974 35.5363 156.511 35.5903C156.71 35.6114 156.92 35.8126 157.067 35.9838C157.74 36.7617 158.395 37.5577 159.173 38.4888V35.6234H161.401V42.2373C160.855 42.2373 160.356 42.2283 159.854 42.2403C159.542 42.2493 159.383 42.0451 159.215 41.8408C158.71 41.2311 158.211 40.6154 157.704 40.0086C157.542 39.8134 157.358 39.6332 157.079 39.3328V42.1983C156.316 42.2643 155.613 42.2313 154.859 42.2253Z"/>
<path d="M234.011 40.5748V42.1968C233.254 42.2658 232.546 42.2298 231.759 42.2238C231.69 40.0131 231.747 37.8445 231.723 35.6339C231.915 35.6069 232.05 35.5678 232.185 35.5678C233.17 35.5618 234.156 35.5288 235.138 35.5798C235.654 35.6069 236.198 35.7 236.67 35.9072C238.147 36.553 238.499 38.5534 237.375 39.7158C237.21 39.887 237.027 40.0372 236.826 40.2204C237.243 40.8632 237.655 41.4939 238.135 42.2358C237.306 42.2358 236.619 42.2538 235.931 42.2208C235.781 42.2118 235.606 42.0406 235.501 41.8994C235.24 41.557 235.018 41.1845 234.768 40.8331C234.591 40.5778 234.582 40.5838 234.005 40.5808L234.011 40.5748ZM234.053 38.8027C234.405 38.8027 234.714 38.8267 235.015 38.7967C235.48 38.7486 235.726 38.4753 235.723 38.0608C235.717 37.6763 235.489 37.394 235.072 37.3399C234.75 37.3009 234.42 37.3309 234.053 37.3309V38.7997V38.8027Z"/>
<path d="M212.13 35.5547C212.157 35.795 212.184 35.9361 212.184 36.0773C212.172 37.3478 212.205 38.6214 212.118 39.8859C212.034 41.1144 211.235 41.9554 210.043 42.2557C209.259 42.451 208.469 42.454 207.697 42.2257C206.643 41.9163 205.985 41.2135 205.754 40.1292C205.73 40.012 205.697 39.8919 205.697 39.7747C205.694 38.4141 205.697 37.0505 205.697 35.6418C206.412 35.5006 207.117 35.5877 207.862 35.5787C207.886 35.813 207.916 35.9962 207.919 36.1794C207.925 37.1616 207.91 38.1468 207.931 39.129C207.937 39.4323 208.003 39.7477 208.112 40.0331C208.256 40.4115 208.589 40.5407 208.986 40.5317C209.358 40.5226 209.652 40.3725 209.782 40.0241C209.881 39.7627 209.947 39.4714 209.956 39.192C209.977 38.2579 209.965 37.3208 209.965 36.3867C209.965 36.1494 209.965 35.9151 209.965 35.6478C210.698 35.4886 211.382 35.6087 212.133 35.5577L212.13 35.5547Z"/>
<path d="M129.918 42.1824V35.6045H135.288V37.1964H132.162V38.0044H134.874V39.6353H132.147V40.4974H135.4V42.1824H129.921H129.918Z"/>
<path d="M257.422 35.6084H262.789V37.2063H259.684V37.9963H262.39V39.6272H259.705V40.5073H262.912V42.1833H257.422V35.6084Z"/>
<path d="M287.017 37.543C286.407 37.3868 285.906 37.2366 285.392 37.1375C285.164 37.0924 284.906 37.1105 284.683 37.1766C284.533 37.2216 284.428 37.4078 284.302 37.531C284.413 37.6391 284.509 37.8073 284.641 37.8464C285.122 37.9875 285.618 38.0836 286.107 38.2038C286.224 38.2308 286.335 38.2789 286.45 38.3149C287.477 38.6453 287.906 39.1409 287.945 40.0029C287.987 40.925 287.588 41.6339 286.582 42.0754C285.675 42.4749 284.707 42.4509 283.749 42.3007C283.14 42.2046 282.515 42.1205 281.953 41.6639C282.169 41.1443 282.389 40.6247 282.608 40.0991C283.665 40.4174 284.644 40.9791 285.729 40.3874C285.566 39.9158 285.191 39.9068 284.885 39.8167C284.449 39.6906 283.996 39.6245 283.557 39.4983C282.587 39.216 282.091 38.6543 282.034 37.8133C281.971 36.9002 282.416 36.1403 283.296 35.7498C284.759 35.1011 286.188 35.3233 287.684 35.9451C287.447 36.5067 287.23 37.0264 287.014 37.54L287.017 37.543Z"/>
<path d="M111.125 35.5957C110.17 37.8484 109.257 40.008 108.332 42.1946H106.061C105.145 40.026 104.223 37.8484 103.273 35.6047H105.712C106.202 36.7941 106.704 38.0046 107.274 39.3862C107.851 38.0346 108.365 36.8242 108.887 35.5987H111.122L111.125 35.5957Z"/>
<path d="M182.49 37.329H180.598V35.5809C182.607 35.5449 184.628 35.5689 186.692 35.5629V37.29H184.773V42.1949H182.511C182.502 41.3899 182.493 40.5879 182.487 39.786C182.484 38.996 182.487 38.2091 182.487 37.326L182.49 37.329Z"/>
</svg>
