<svg width="245" height="78" viewBox="0 0 245 78" fill="none" xmlns="http://www.w3.org/2000/svg">
<g clip-path="url(#clip0_3846_56570)">
<path d="M116.566 61.2676H118.299L122.427 72.3821L126.581 61.2676H128.314L123.258 73.9877H121.622L116.566 61.2676Z"/>
<path d="M141.133 74.2242C139.336 74.2242 137.869 73.6213 136.746 72.4089C135.623 71.1965 135.059 69.5975 135.059 67.6184C135.059 65.6393 135.63 64.0468 136.778 62.841C137.927 61.6351 139.407 61.0322 141.231 61.0322C143.054 61.0322 144.502 61.6024 145.579 62.7361C146.656 63.8698 147.195 65.2723 147.195 66.9565C147.195 67.4087 147.163 67.8281 147.104 68.2148H136.72C136.785 69.6762 137.22 70.823 138.038 71.6618C138.855 72.5007 139.881 72.9201 141.127 72.9201C142.094 72.9201 142.925 72.6973 143.606 72.2451C144.294 71.7929 144.761 71.2031 145.027 70.4757H146.76C146.345 71.5635 145.67 72.4614 144.729 73.1691C143.788 73.8769 142.594 74.2308 141.127 74.2308L141.133 74.2242ZM145.54 66.9303C145.54 65.5344 145.118 64.4138 144.281 63.588C143.444 62.7558 142.405 62.3429 141.166 62.3429C139.926 62.3429 138.894 62.7492 138.077 63.5684C137.252 64.3876 136.804 65.5082 136.727 66.9368H145.54V66.9303Z"/>
<path d="M155.565 61.2681V63.339C156.409 61.799 157.804 61.0322 159.745 61.0322C161.147 61.0322 162.315 61.4975 163.25 62.4215C164.184 63.3456 164.658 64.6759 164.658 66.4191V73.9948H163.068V66.7271C163.068 65.3313 162.73 64.2631 162.062 63.5356C161.393 62.8082 160.478 62.4412 159.317 62.4412C158.155 62.4412 157.24 62.8082 156.571 63.5356C155.903 64.2631 155.565 65.3313 155.565 66.7271V73.9948H153.949V61.2747H155.565V61.2681Z"/>
<path d="M178.256 62.5521H174.771V70.9864C174.771 71.622 174.894 72.0677 175.141 72.3233C175.387 72.5788 175.829 72.7099 176.458 72.7099H178.256V73.9878H176.108C174.141 73.9878 173.155 72.9852 173.155 70.9798V62.5456H171.402V61.2677H173.155V58.0762H174.771V61.2677H178.256V62.5456V62.5521Z"/>
<path d="M194.097 61.2676H195.713V73.9877H194.097V71.9169C193.253 73.4569 191.857 74.2236 189.917 74.2236C188.515 74.2236 187.347 73.7649 186.412 72.8409C185.471 71.9168 185.004 70.5865 185.004 68.8433V61.2676H186.594V68.5353C186.594 69.9312 186.931 70.9994 187.6 71.7268C188.268 72.4542 189.184 72.8212 190.345 72.8212C191.507 72.8212 192.422 72.4542 193.091 71.7268C193.759 70.9994 194.097 69.9312 194.097 68.5353V61.2676Z"/>
<path d="M204.073 61.2681V63.3652C204.768 61.8121 206.066 61.0322 207.974 61.0322V62.7361H207.513C206.403 62.7361 205.553 63.0376 204.962 63.647C204.372 64.2565 204.073 65.2919 204.073 66.7664V73.9883H202.457V61.2681H204.073Z"/>
<path d="M220.794 74.2242C218.996 74.2242 217.529 73.6213 216.406 72.4089C215.283 71.1965 214.719 69.5975 214.719 67.6184C214.719 65.6393 215.29 64.0468 216.439 62.841C217.587 61.6351 219.067 61.0322 220.891 61.0322C222.715 61.0322 224.162 61.6024 225.239 62.7361C226.317 63.8698 226.855 65.2723 226.855 66.9565C226.855 67.4087 226.823 67.8281 226.764 68.2148H216.38C216.445 69.6762 216.88 70.823 217.698 71.6618C218.515 72.5007 219.541 72.9201 220.787 72.9201C221.754 72.9201 222.585 72.6973 223.266 72.2451C223.954 71.7929 224.422 71.2031 224.688 70.4757H226.42C226.005 71.5635 225.33 72.4614 224.389 73.1691C223.448 73.8769 222.254 74.2308 220.787 74.2308L220.794 74.2242ZM225.2 66.9303C225.2 65.5344 224.778 64.4138 223.941 63.588C223.104 62.7558 222.066 62.3429 220.826 62.3429C219.586 62.3429 218.554 62.7492 217.737 63.5684C216.912 64.3876 216.465 65.5082 216.387 66.9368H225.2V66.9303Z"/>
<path d="M233.604 64.7866C233.604 63.7315 234.032 62.8403 234.896 62.1194C235.759 61.3985 236.856 61.0381 238.193 61.0381C239.53 61.0381 240.575 61.392 241.321 62.0997C242.067 62.8075 242.476 63.7774 242.554 65.0226H240.893C240.86 64.2493 240.601 63.607 240.107 63.1024C239.614 62.5978 238.933 62.3422 238.056 62.3422C237.18 62.3422 236.492 62.5585 235.993 62.9976C235.493 63.4301 235.24 63.9543 235.24 64.5704C235.24 65.1864 235.421 65.6713 235.791 66.0252C236.161 66.3857 236.629 66.6216 237.187 66.7461C237.751 66.8706 238.355 67.0213 239.01 67.1852C239.666 67.3556 240.27 67.5391 240.834 67.7357C241.399 67.9323 241.86 68.2796 242.23 68.7842C242.599 69.2888 242.781 69.9376 242.781 70.7306C242.781 71.7529 242.359 72.5917 241.516 73.2471C240.672 73.8959 239.556 74.2235 238.18 74.2235C236.804 74.2235 235.713 73.8696 234.915 73.1553C234.117 72.441 233.676 71.4711 233.598 70.2456H235.259C235.292 71.0386 235.564 71.6808 236.09 72.1789C236.616 72.6769 237.329 72.926 238.245 72.926C239.16 72.926 239.874 72.7294 240.38 72.3296C240.886 71.9364 241.139 71.4252 241.139 70.8027C241.139 70.1801 240.957 69.6951 240.588 69.3347C240.218 68.9808 239.75 68.7318 239.192 68.6007C238.634 68.4696 238.024 68.3189 237.368 68.1485C236.713 67.9781 236.109 67.8012 235.545 67.6111C234.98 67.4277 234.519 67.0934 234.149 66.6085C233.779 66.1301 233.598 65.5206 233.598 64.7932L233.604 64.7866Z"/>
<path d="M142.437 9.77637H152.114V50.0077H142.437L126.251 24.6919V50.0077H116.574V9.77637H126.251L142.437 35.0921V9.77637Z"/>
<path d="M164.639 44.5491C160.693 40.6826 158.727 35.7741 158.727 29.8302C158.727 23.8863 160.7 18.9843 164.639 15.1113C168.579 11.2448 173.401 9.31152 179.099 9.31152C183.512 9.31152 187.439 10.4911 190.872 12.8569C194.306 15.2227 196.7 18.4928 198.063 22.687H186.517C185.005 19.7511 182.591 18.2831 179.274 18.2831C175.958 18.2831 173.342 19.3317 171.434 21.4288C169.526 23.5258 168.579 26.3241 168.579 29.8302C168.579 33.3363 169.533 36.1346 171.434 38.2317C173.342 40.3288 175.9 41.3773 179.106 41.3773C181.41 41.3773 183.285 40.7941 184.739 39.6341C186.193 38.4741 187.166 36.921 187.653 34.9746H176.445V27.5431H198.063V34.9746C197.349 38.6314 195.363 42.0457 192.118 45.2045C190.574 46.7314 188.659 47.97 186.375 48.9203C184.09 49.8705 181.669 50.3489 179.099 50.3489C173.401 50.3489 168.579 48.4157 164.639 44.5491Z"/>
<path d="M210.592 44.5491C206.646 40.6826 204.68 35.7741 204.68 29.8302C204.68 23.8863 206.653 18.9843 210.592 15.1113C214.532 11.2448 219.354 9.31152 225.052 9.31152C229.466 9.31152 233.392 10.4911 236.825 12.8569C240.259 15.2227 242.654 18.4928 244.016 22.687H232.471C230.958 19.7511 228.544 18.2831 225.228 18.2831C221.911 18.2831 219.296 19.3317 217.387 21.4288C215.479 23.5258 214.532 26.3241 214.532 29.8302C214.532 33.3363 215.486 36.1346 217.387 38.2317C219.289 40.3288 221.905 41.3773 225.228 41.3773C228.55 41.3773 230.965 39.9093 232.471 36.98H244.016C242.66 41.1741 240.259 44.4508 236.825 46.8101C233.392 49.1758 229.466 50.3555 225.052 50.3555C219.354 50.3555 214.532 48.4222 210.592 44.5557V44.5491Z"/>
<path d="M12.5761 7.10342L0.679688 0.169922V63.5151L12.5761 70.4486L24.4661 77.3821V14.0369L12.5761 7.10342Z"/>
<path d="M48.2597 7.10342L36.3633 0.169922V63.5151L48.2597 70.4486L60.1497 77.3821V14.0369L48.2597 7.10342Z"/>
<path d="M83.9368 7.10342L72.0469 0.169922V63.5151L83.9368 70.4486L95.8333 77.3821V14.0369L83.9368 7.10342Z"/>
</g>
<defs>
<clipPath id="clip0_3846_56570">
<rect width="243.335" height="77.2121" transform="translate(0.679688 0.169922)"/>
</clipPath>
</defs>
</svg>
