<svg width="245" height="67" viewBox="0 0 245 67" fill="none" xmlns="http://www.w3.org/2000/svg">
<path d="M0.00610968 0.368164H59.991C59.991 1.53511 59.991 2.64708 59.991 3.76515C59.991 4.76714 59.9848 5.76913 59.991 6.77112C59.991 7.3943 59.771 7.63258 59.0806 7.63258C47.35 7.60814 35.6194 7.61425 23.895 7.61425C19.0561 7.61425 14.2172 7.61425 9.37836 7.61425C8.11366 7.61425 8.08311 7.6448 8.08311 8.86063C8.08311 25.3812 8.08311 41.8957 8.08311 58.4162C8.08311 59.1901 8.48227 59.5771 9.28061 59.5771C25.8501 59.5771 42.4134 59.5771 58.9829 59.5771H59.9054V66.8843H59.0317C39.774 66.8843 20.5224 66.8843 1.2647 66.8843C0.0122193 66.8843 0 66.8782 0 65.6134C0.00610968 44.144 0.00610968 22.6624 0.00610968 1.18687V0.37428V0.368164Z"/>
<path d="M66.2157 24.1349C65.7696 23.0413 65.4458 22.131 64.4438 21.5017C63.6374 20.9885 62.9714 20.3164 61.9267 20.4019C60.8208 19.4061 59.4767 20.017 58.2486 19.8887C57.7232 19.8337 57.0634 19.6504 56.7151 20.3469C56.6968 20.3897 56.5746 20.4081 56.5074 20.3897C55.5115 20.1331 54.8761 20.9823 54.0513 21.2512C53.7214 21.355 53.1226 21.7399 53.1287 22.3998C53.1287 22.5648 52.8904 22.7236 52.7866 22.9069C52.701 23.0535 52.5972 23.2246 52.585 23.3896C52.5544 23.9516 52.53 24.5137 52.5605 25.0697C52.585 25.4546 52.3833 25.9373 53.031 26.1389C53.1959 26.1878 53.2081 26.7438 53.3853 26.9515C53.7152 27.202 54.0329 27.4647 54.3751 27.6969C54.4851 27.7702 54.6622 27.7397 54.7906 27.8007C55.0594 27.9229 55.3221 28.0635 55.5787 28.204C55.6826 28.259 55.7742 28.3506 55.8842 28.369C57.3261 28.6011 58.768 28.815 60.2037 29.0594C60.5825 29.1266 60.943 29.3221 61.3218 29.4198C61.6945 29.5176 62.0794 29.5603 62.4582 29.6398C63.2891 29.8169 64.2178 29.3526 64.9693 30.1713C65.1831 30.4035 65.8124 30.2263 66.2523 30.2752C66.6433 30.3241 67.1565 30.098 67.3521 30.7212C67.3826 30.8189 67.7553 30.8067 67.9691 30.8434C68.3846 30.9106 68.9345 30.6906 69.0933 31.3444C69.0933 31.3627 69.1361 31.3871 69.1483 31.3871C69.9242 31.2344 70.3152 31.9614 70.9384 32.1936C71.3783 32.3525 71.7205 32.7924 72.0871 33.1223C72.3376 33.3484 72.5147 33.6905 72.8019 33.8432C73.474 34.222 73.6511 35.0041 74.1033 35.4256C74.6348 35.9327 74.3049 36.8064 75.0991 37.118C75.2763 37.1852 75.1419 37.9489 75.2274 38.3766C75.3008 38.7249 75.4963 39.0426 75.6185 39.3847C75.6796 39.5619 75.7284 39.7513 75.7284 39.9346C75.7406 41.0099 75.7468 42.0852 75.7223 43.1605C75.7162 43.3866 75.5207 43.6065 75.4596 43.8387C75.3435 44.2724 75.2702 44.7185 75.1786 45.1523C75.0991 45.5127 75.3374 46.0259 74.7203 46.1542C74.6837 46.1603 74.6287 46.2337 74.6348 46.2581C74.812 47.0768 74.0055 47.4617 73.8039 48.1277C73.6817 48.537 73.2051 48.8425 72.8813 49.1907C72.6491 49.4351 72.3131 49.6245 72.1726 49.9117C71.6899 50.8831 70.4863 50.9931 69.9548 51.7263C69.4843 52.3739 68.5312 51.9279 68.3174 52.7527C68.3052 52.8016 68.0913 52.7955 67.9752 52.8199C67.462 52.9238 66.8205 52.6916 66.5211 53.3698C66.5028 53.4064 66.3867 53.4064 66.3134 53.4187C64.2483 53.718 62.2199 54.3045 60.0938 54.1518C59.0001 54.0724 57.8943 54.1152 56.8006 54.0602C56.1164 54.0296 55.426 54.1457 54.8028 53.6019C54.5523 53.382 54.0024 53.4981 53.5931 53.4431C53.1959 53.3881 52.6766 53.5775 52.5177 52.9665C52.5116 52.936 52.4444 52.9115 52.3956 52.8932C51.7174 52.6794 51.0148 52.5266 50.3733 52.2334C49.8234 51.9829 49.3407 51.5735 48.8275 51.2375C48.4059 50.9626 47.9905 50.6632 47.5506 50.4188C47.0618 50.15 46.7319 49.7651 46.4142 49.3129C45.9071 48.592 45.3022 47.9444 44.7462 47.254C44.6913 47.1868 44.679 47.0768 44.6485 46.9852C44.3919 46.2459 44.2819 45.4089 43.8481 44.7918C43.3166 44.0403 43.4021 43.2582 43.3288 42.4701C43.2921 42.1157 43.3288 41.7492 43.3288 41.3642C43.5549 41.3276 43.6954 41.2787 43.8298 41.2787C46.0293 41.2787 48.2288 41.297 50.4282 41.2604C51.0575 41.2482 51.308 41.4925 51.3447 42.0852C51.3936 42.9711 51.9007 43.6309 52.4505 44.2663C52.7377 44.6024 52.9821 44.9751 53.2631 45.3172C53.3303 45.3966 53.4586 45.4272 53.5686 45.4577C53.9169 45.5494 54.3812 45.4516 54.424 46.0076C54.424 46.0259 54.4606 46.0443 54.479 46.0504C55.206 46.2825 55.9208 46.6247 56.6662 46.7163C58.0409 46.8813 59.3789 47.4434 60.7964 47.1929C61.8289 47.0096 62.8859 46.9057 63.8818 46.5941C64.6149 46.362 65.4092 45.9832 65.8918 45.4211C66.57 44.6329 67.4681 43.8509 67.2726 42.5862C67.2299 42.299 67.2543 41.9997 67.2726 41.7064C67.3643 40.4967 66.9122 39.5558 66.0629 38.6699C65.7391 38.34 65.2687 38.3277 65.1342 38.1139C64.566 37.2524 63.3747 37.9489 62.8309 37.0875C62.7331 36.9347 62.281 37.0019 61.9939 36.9714C61.224 36.8858 60.4237 37.0875 59.7088 36.4826C59.4339 36.2504 58.8596 36.391 58.4258 36.3299C56.8129 36.1038 55.1694 35.9816 53.5992 35.5784C52.9271 35.4073 52.1084 35.3462 51.6074 35.0102C50.9964 34.5947 50.4038 34.5642 49.7806 34.4237C49.524 34.3626 49.2246 34.1365 49.1024 33.8982C48.7847 33.2995 47.9477 33.495 47.6483 32.8168C47.5017 32.4808 46.9274 32.3586 46.7013 32.0287C46.4142 31.6071 45.8521 31.3871 45.8154 30.7701C45.8032 30.599 45.5894 30.4401 45.455 30.2813C45.4122 30.2324 45.3022 30.2141 45.29 30.1652C45.0517 29.4198 44.7523 28.6867 44.5996 27.9229C44.3491 26.7132 43.842 25.5279 44.0742 24.251C44.288 23.1024 44.5018 21.9477 44.7096 20.7991C45.455 20.518 45.0151 19.516 45.7788 19.1433C46.1454 18.9601 46.237 18.2452 46.4936 17.7931C46.6769 17.4754 46.8785 17.1272 47.1657 16.9133C47.8316 16.4245 48.5587 16.0152 49.2491 15.557C49.7501 15.2209 50.2266 14.8543 50.7093 14.5C50.7459 14.4694 50.7765 14.4267 50.8193 14.4144C51.5524 14.1884 52.2856 13.9745 53.0187 13.7363C53.3181 13.6385 53.5931 13.4674 53.8863 13.3636C54.1551 13.2719 54.4423 13.162 54.7233 13.162C57.6743 13.1497 60.6314 13.1436 63.5824 13.162C63.8023 13.162 64.0223 13.3575 64.2422 13.4674C64.3217 13.5102 64.3889 13.6019 64.4683 13.6202C65.3481 13.8646 66.2462 14.0662 67.1138 14.3595C67.5842 14.5183 68.0119 14.8299 68.4518 15.0804C68.7451 15.2454 69.0322 15.4164 69.3133 15.5997C69.5943 15.7891 69.8998 15.9602 70.132 16.1985C70.6207 16.7056 71.0667 17.2616 71.5433 17.787C71.8427 18.1169 72.1665 18.4285 72.4842 18.7462C72.5147 18.7829 72.5697 18.8012 72.5881 18.844C72.8569 19.4855 73.1318 20.1209 73.3823 20.7685C73.755 21.7094 74.1216 22.6564 74.4576 23.6095C74.5004 23.7378 74.3599 24.0555 74.2377 24.0983C73.9016 24.2144 73.5289 24.2755 73.1685 24.2816C71.2623 24.2999 69.356 24.2999 67.4498 24.2816C67.016 24.2816 66.5883 24.1716 66.2279 24.1227L66.2157 24.1349Z"/>
<path d="M167.45 53.3813H159.593C159.306 52.4648 158.94 51.6095 158.677 50.7236C158.469 50.0271 158.487 49.19 158.109 48.6524C157.504 47.7848 157.95 46.6301 157.143 45.8664C156.978 45.7075 157.052 45.3043 157.003 45.0171C156.917 44.5283 157.125 43.9724 156.508 43.5997C156.312 43.4836 156.392 42.9215 156.337 42.506H142.462C142.26 43.6119 141.472 44.5589 141.686 45.7503C140.983 46.3001 141.441 47.3266 141.044 47.7787C140.446 48.4569 140.696 49.1717 140.476 49.8376C140.183 50.7236 139.798 51.5789 139.468 52.4587C139.358 52.752 139.297 53.0636 139.218 53.3752H131.415C131.391 52.7214 131.183 52.086 131.813 51.6156C131.849 51.5911 131.874 51.5361 131.886 51.4934C132.118 50.6075 132.338 49.7216 132.595 48.8418C132.692 48.4996 132.894 48.1941 133.022 47.8581C133.108 47.6321 133.151 47.3938 133.2 47.1555C133.291 46.7401 133.047 46.1841 133.701 46.013C133.731 46.0069 133.768 45.9213 133.755 45.8847C133.499 44.8033 134.476 44.0151 134.434 42.9765C134.428 42.7749 134.654 42.5732 134.751 42.3594C134.843 42.1517 134.947 41.9317 134.984 41.7057C135.075 41.0764 134.886 40.3615 135.57 39.9339C135.588 39.9216 135.588 39.8911 135.595 39.8666C135.814 38.9624 136.022 38.046 136.273 37.1478C136.358 36.8485 136.572 36.5919 136.688 36.2986C136.786 36.0603 136.823 35.7915 136.878 35.541C136.963 35.1317 136.7 34.5818 137.366 34.4046C137.427 34.3863 137.434 34.1419 137.458 34.0014C137.568 33.4759 137.299 32.8344 137.977 32.4617C138.099 32.3945 138.032 32.0035 138.069 31.7591C138.13 31.3681 137.91 30.8549 138.527 30.696C138.558 30.6899 138.582 30.6166 138.594 30.5738C138.845 29.5963 139.089 28.6126 139.346 27.6351C139.572 26.7553 139.621 25.7594 140.091 25.0323C140.458 24.4703 140.482 23.9448 140.611 23.3827C140.647 23.2239 140.776 23.0773 140.879 22.9428C140.934 22.8756 141.093 22.8268 141.087 22.784C141.002 21.9042 141.411 21.171 141.71 20.3951C141.875 19.9735 141.558 19.3565 142.236 19.1304C142.26 19.1243 142.279 19.0449 142.285 18.996C142.37 18.2812 142.462 17.6152 142.841 16.9187C143.329 16.0083 143.427 14.8842 143.714 13.7783H155.133C155.255 14.7314 156.117 15.4463 155.873 16.4666C156.557 16.9615 156.154 17.9085 156.526 18.3545C157.015 18.9349 156.893 19.5275 157.088 20.1018C157.369 20.9144 157.773 21.6842 158.103 22.4846C158.176 22.6618 158.188 22.8634 158.213 23.0589C158.268 23.5538 158.206 24.0609 158.689 24.4336C158.848 24.5558 158.817 24.9346 158.866 25.1912C158.933 25.5456 158.775 25.9793 159.318 26.1443C159.428 26.181 159.428 26.5842 159.471 26.8164C159.581 27.3907 159.257 28.1055 160.009 28.4904C160.082 28.5271 160.045 28.7654 160.07 28.9059C160.162 29.413 159.893 30.0545 160.595 30.3417C160.614 30.3478 160.62 30.3844 160.626 30.4089C160.864 31.3131 160.986 32.2723 161.377 33.1032C161.811 34.0319 161.671 35.15 162.398 35.9687C162.538 36.1214 162.489 36.433 162.544 36.6713C162.624 37.044 162.428 37.5389 163.003 37.6916C163.033 37.6977 163.082 37.771 163.076 37.8077C162.929 38.773 163.583 39.5245 163.748 40.4104C163.846 40.9297 163.504 41.614 164.286 41.9073C164.359 41.9378 164.304 42.2372 164.359 42.3899C164.512 42.8176 164.701 43.2331 164.86 43.6608C164.921 43.8135 164.933 43.9846 164.97 44.1495C165.086 44.6628 165.129 45.1454 165.422 45.6708C165.886 46.4956 165.96 47.5343 166.228 48.4752C166.302 48.7379 166.509 48.9579 166.626 49.2084C166.705 49.3733 166.754 49.5505 166.791 49.7338C166.901 50.2409 166.833 50.7113 167.255 51.2307C167.615 51.6767 167.414 52.5809 167.463 53.369L167.45 53.3813ZM148.553 20.5112C148.486 21.1344 148.626 21.8859 148.327 22.1425C147.832 22.5702 147.948 23.0284 147.863 23.4927C147.802 23.8287 147.844 24.2259 147.673 24.4825C147.044 25.4295 147.075 26.572 146.69 27.5923C146.323 28.576 146.195 29.639 145.957 30.6716C145.944 30.7205 145.932 30.7938 145.902 30.7999C145.199 30.9832 145.474 31.5758 145.407 32.0096C145.346 32.3945 145.48 32.9749 145.272 33.1338C144.502 33.7203 144.936 34.4352 144.79 35.1072H153.991C153.942 34.7101 154.027 34.203 153.826 34.0319C153.258 33.5492 153.398 32.9444 153.325 32.364C153.288 32.1012 153.325 31.6675 153.197 31.6064C152.579 31.3253 152.738 30.8121 152.738 30.36C152.738 29.3091 151.84 28.4599 152.072 27.354C152.085 27.3052 151.932 27.244 151.883 27.1707C151.773 27.0119 151.626 26.8469 151.59 26.6698C151.455 25.9549 151.437 25.2828 151.04 24.5619C150.539 23.6516 150.472 22.4846 150.301 21.4154C150.16 20.5356 150.105 20.4318 149.213 20.4501C148.999 20.4501 148.785 20.4806 148.541 20.499L148.553 20.5112Z"/>
<path d="M244.331 46.1173V53.3756H218.151C218.12 52.9907 218.065 52.6363 218.065 52.282C218.065 39.696 218.065 27.1162 218.047 14.5303C218.047 13.8949 218.212 13.6932 218.866 13.6994C227.126 13.7177 235.386 13.7116 243.64 13.7177C243.854 13.7177 244.068 13.7421 244.331 13.7605V21.0493H243.378C237.879 21.0493 232.38 21.0493 226.881 21.0493C225.629 21.0493 225.537 21.141 225.537 22.3568C225.537 29.9083 225.537 37.4599 225.537 45.0054C225.537 46.0562 225.592 46.1173 226.662 46.1173C232.258 46.1173 237.854 46.1173 243.451 46.1173H244.331Z"/>
<path d="M188.199 46.1176H191.321C196.111 46.1176 200.895 46.1176 205.685 46.1176C206.312 46.1176 206.626 46.4415 206.626 47.0891C206.626 48.7754 206.626 50.4616 206.626 52.1479C206.626 52.5328 206.571 52.9177 206.54 53.3759C206.235 53.3882 205.978 53.4126 205.721 53.4126C197.638 53.4126 189.549 53.4126 181.466 53.4126C180.317 53.4126 180.293 53.3882 180.293 52.2212C180.293 39.6903 180.293 27.1593 180.293 14.6284C180.293 14.3901 180.293 14.1457 180.293 13.8341C180.708 13.7913 181.057 13.7241 181.417 13.718C183.421 13.7058 185.425 13.7425 187.429 13.6997C188.101 13.6875 188.229 13.9135 188.229 14.5367C188.211 24.7215 188.217 34.9125 188.217 45.0973C188.217 45.4089 188.217 45.7205 188.217 46.1238L188.199 46.1176Z"/>
<path d="M122.798 53.3826C122.511 53.3949 122.273 53.4193 122.035 53.4193C119.517 53.4193 117 53.3765 114.483 53.4498C113.762 53.4682 113.408 52.9855 113.09 52.6434C112.534 52.0568 112.338 51.1159 111.764 50.56C111.117 49.9307 111.025 48.9348 110.139 48.4582C109.766 48.2566 109.693 47.554 109.351 47.2057C108.856 46.6925 108.789 45.9716 108.239 45.4584C107.646 44.8963 107.329 44.047 106.864 43.3505C106.632 43.0023 106.327 42.7029 106.058 42.3791C105.972 42.2752 105.856 42.1714 105.819 42.0492C105.612 41.4015 105.129 40.9494 104.695 40.4668C104.634 40.3996 104.573 40.3079 104.561 40.2224C104.457 39.532 103.944 39.141 103.461 38.7255C103.443 38.7072 103.412 38.7011 103.406 38.6827C103.143 38.0107 102.685 37.3508 102.655 36.6727C102.557 34.6015 102.612 32.5181 102.624 30.4408C102.624 29.5671 103.125 28.9317 103.712 28.3452C103.803 28.2535 103.834 28.0947 103.864 27.9602C103.999 27.3432 104.414 26.9338 104.891 26.5672C104.958 26.5123 105.05 26.4328 105.05 26.3656C105.08 25.5653 105.655 25.162 106.162 24.6671C106.516 24.3128 106.595 23.6835 106.944 23.3169C107.61 22.6204 107.707 21.5207 108.624 21.0197C108.673 20.9891 108.715 20.9036 108.722 20.8425C108.758 20.0665 109.265 19.6205 109.821 19.1868C109.931 19.1012 109.901 18.8629 109.986 18.7285C110.292 18.2642 110.628 17.8182 110.952 17.3722C111.019 17.2805 111.153 17.2072 111.159 17.1156C111.239 16.3702 111.709 15.9181 112.29 15.5332C112.351 15.4904 112.363 15.3621 112.381 15.2704C112.711 13.9813 113.035 13.7247 114.391 13.7247C116.64 13.7247 118.888 13.7247 121.136 13.7247C121.405 13.7247 121.686 13.7064 121.937 13.7797C122.047 13.8102 122.102 14.0546 122.181 14.2013C121.32 14.6289 121.503 15.8936 120.544 16.248C120.477 16.2724 120.415 16.3946 120.409 16.4741C120.354 17.2255 119.829 17.6593 119.316 18.0992C119.279 18.1298 119.224 18.1664 119.224 18.197C119.206 19.0584 118.552 19.4922 118.039 20.0482C117.715 20.3965 117.672 21.0624 117.312 21.3251C116.719 21.765 116.823 22.5654 116.2 23.0297C115.913 23.2436 115.381 23.7323 115.406 24.4227C115.418 24.7404 114.886 25.0765 114.593 25.4003C114.507 25.498 114.349 25.5775 114.324 25.6874C114.171 26.384 113.811 26.9033 113.194 27.2638C113.127 27.3004 113.084 27.4226 113.078 27.5142C113.011 28.2474 112.503 28.6873 112.015 29.1394C111.966 29.1883 111.892 29.2494 111.892 29.2983C111.905 30.1231 111.239 30.4835 110.787 31.009C110.451 31.3939 110.273 31.9132 110.005 32.3653C109.901 32.5364 109.705 32.6586 109.632 32.8358C109.467 33.2268 108.972 33.6667 109.736 34.0027C109.846 34.0516 109.852 34.296 109.944 34.4243C110.292 34.9009 110.664 35.3591 111.019 35.8356C111.098 35.9456 111.123 36.0983 111.202 36.2083C111.544 36.6849 111.899 37.1492 112.247 37.6197C112.302 37.693 112.381 37.7663 112.387 37.8396C112.448 38.6033 112.998 39.0127 113.499 39.477C113.762 39.7153 113.988 40.0452 114.116 40.3751C114.373 41.035 114.709 41.5971 115.363 41.927C115.424 41.9575 115.442 42.0981 115.454 42.1897C115.558 42.8801 116.047 43.2833 116.505 43.7477C116.866 44.1081 117.055 44.6458 117.348 45.0857C117.611 45.4889 117.911 45.8616 118.198 46.2526C118.283 46.3687 118.393 46.4665 118.442 46.5948C118.686 47.1996 119.065 47.6823 119.597 48.055C119.633 48.0794 119.688 48.1222 119.688 48.1589C119.688 49.0264 120.385 49.4174 120.88 49.9734C121.222 50.3583 121.356 50.9143 121.631 51.3664C121.833 51.6964 122.053 52.1301 122.371 52.2523C123 52.5028 122.731 52.9366 122.798 53.3826Z"/>
<path d="M98.329 53.3882H91.0463C91.0096 52.991 90.9363 52.6122 90.9363 52.2334C90.9363 39.678 90.9363 27.1287 90.918 14.5734C90.918 13.9013 91.1074 13.6875 91.7855 13.6997C93.6918 13.7424 95.598 13.7547 97.4981 13.6997C98.2862 13.6752 98.4084 13.9624 98.4084 14.665C98.384 23.0902 98.3962 31.5155 98.3962 39.9408C98.3962 43.9976 98.3962 48.0483 98.3962 52.1051C98.3962 52.5145 98.3596 52.9238 98.3351 53.4004L98.329 53.3882Z"/>
<path d="M229.65 30.2324H236.97V36.9225C236.725 36.947 236.444 37.002 236.163 37.002C234.19 37.0081 232.216 37.0203 230.237 36.9897C230.035 36.9897 229.675 36.727 229.675 36.5804C229.638 34.4909 229.65 32.3952 229.65 30.2324Z"/>
</svg>
