<svg width="334" height="56" viewBox="0 0 334 56" fill="none" xmlns="http://www.w3.org/2000/svg">
<g clip-path="url(#clip0_3846_56588)">
<path d="M4.73719 35.2181L18.1938 8.23124V35.2181H4.73719ZM35.4089 50.4417L21.6619 36.6571L35.4089 22.8667V50.4417ZM38.2733 50.4417V22.8667L52.0203 36.6571L38.2733 50.4417ZM55.4884 35.2181V8.23124L68.945 35.2181H55.4884ZM54.6513 38.0961H65.1922L44.1104 48.6658L54.6513 38.0961ZM19.0366 38.0961L29.5775 48.6658L8.49 38.0961H19.0366ZM1.02424 36.3259C1.01285 36.3716 1.00715 36.4115 1.00146 36.4629C0.995764 36.5143 0.99007 36.5657 0.984375 36.6171C0.984375 36.6285 0.984375 36.6457 0.984375 36.6628C0.984375 36.6913 0.99007 36.7199 0.99007 36.7485C0.99007 36.7998 0.99007 36.8512 1.00715 36.9026C1.01285 36.9483 1.02424 36.994 1.03563 37.0397C1.04702 37.0854 1.05841 37.1253 1.07549 37.171C1.09257 37.2167 1.10966 37.2567 1.13244 37.3023C1.14952 37.3423 1.1723 37.3823 1.20077 37.4223C1.22355 37.4622 1.25203 37.4965 1.2805 37.5365C1.30897 37.5764 1.33745 37.6107 1.37161 37.645C1.40009 37.6792 1.43995 37.7135 1.46843 37.742C1.50259 37.7706 1.53676 37.8048 1.57662 37.8277C1.61649 37.8562 1.66205 37.8848 1.7076 37.9076C1.73038 37.9191 1.75316 37.9419 1.78163 37.9533L36.2061 55.2155C36.2061 55.2155 36.2346 55.2212 36.246 55.227C36.2631 55.2327 36.2802 55.2441 36.3029 55.2555C36.32 55.2612 36.3371 55.2669 36.3599 55.2726C36.3884 55.2841 36.4168 55.2898 36.4453 55.3012C36.4738 55.3069 36.5023 55.3183 36.525 55.324C36.5421 55.324 36.5535 55.3354 36.5706 55.3354C36.5877 55.3354 36.6048 55.3354 36.6218 55.3354C36.6503 55.3354 36.6845 55.3412 36.713 55.3469C36.7471 55.3469 36.7813 55.3469 36.8098 55.3469H36.8952C36.9294 55.3469 36.9578 55.3469 36.992 55.3469C37.0205 55.3469 37.0546 55.3412 37.0831 55.3354C37.1002 55.3354 37.1173 55.3354 37.1344 55.3354C37.1515 55.3354 37.1628 55.3297 37.1799 55.324C37.2084 55.324 37.2369 55.3126 37.2597 55.3012C37.2881 55.2955 37.3166 55.2841 37.3451 55.2726C37.3622 55.2726 37.3792 55.2612 37.402 55.2555C37.4191 55.2498 37.4362 55.2384 37.459 55.227C37.4704 55.227 37.4874 55.2212 37.4988 55.2155L71.9233 37.9533C71.9233 37.9533 71.9689 37.9191 71.9974 37.9076C72.0429 37.8848 72.0828 37.8562 72.1283 37.8277C72.1682 37.7991 72.1967 37.7706 72.2365 37.742C72.2764 37.7135 72.3049 37.6792 72.3333 37.645C72.3675 37.6107 72.396 37.5707 72.4245 37.5365C72.4529 37.5022 72.4814 37.4622 72.5042 37.4223C72.527 37.3823 72.5497 37.3423 72.5725 37.3023C72.5953 37.2624 72.6124 37.2167 72.6295 37.171C72.6466 37.1253 72.6579 37.0854 72.6693 37.0397C72.6807 36.994 72.6921 36.954 72.6978 36.9026C72.7035 36.8512 72.7092 36.7998 72.7149 36.7485C72.7149 36.7199 72.7206 36.6913 72.7206 36.6628C72.7206 36.6514 72.7206 36.6342 72.7206 36.6171C72.7206 36.5657 72.7149 36.5143 72.7035 36.4629C72.7035 36.4173 72.6921 36.3716 72.6807 36.3259C72.6693 36.2859 72.6579 36.2402 72.6409 36.2003C72.6238 36.1489 72.6067 36.0975 72.5839 36.0518C72.5839 36.0404 72.5782 36.0232 72.5725 36.0118L55.3346 1.4931C55.3346 1.4931 55.3119 1.46455 55.3062 1.45313C55.2549 1.36176 55.198 1.27611 55.1296 1.20187C55.1126 1.18474 55.1012 1.1619 55.0841 1.14477C55.0044 1.06483 54.9132 0.990593 54.8164 0.92778C54.7937 0.910649 54.7652 0.899228 54.7424 0.887808C54.6627 0.842125 54.5773 0.807863 54.4918 0.779312C54.4634 0.767891 54.4292 0.762181 54.4007 0.75076C54.2925 0.722209 54.1786 0.705078 54.0647 0.705078C54.0647 0.705078 54.059 0.705078 54.0533 0.705078C54.0419 0.705078 54.0249 0.705078 54.0078 0.705078C53.9167 0.705078 53.8312 0.716499 53.7458 0.73363C53.7174 0.73363 53.6889 0.75076 53.6661 0.756471C53.5921 0.779312 53.5237 0.802153 53.4554 0.830705C53.444 0.830705 53.4326 0.836415 53.4212 0.842125C53.3927 0.853546 53.3757 0.876387 53.3472 0.887808C53.3016 0.910649 53.2618 0.9392 53.2162 0.967752C53.1764 0.996303 53.1479 1.02485 53.108 1.05341C53.0738 1.08196 53.0397 1.11622 53.0112 1.15048C52.977 1.18474 52.9486 1.22471 52.9201 1.25898C52.8916 1.29324 52.8631 1.33321 52.8404 1.37318C52.8176 1.41315 52.7948 1.45313 52.772 1.4931C52.7492 1.53307 52.7322 1.57875 52.7151 1.62444C52.698 1.67012 52.6866 1.71009 52.6752 1.75577C52.6638 1.80145 52.6524 1.84143 52.6467 1.89282C52.6411 1.94421 52.6354 1.9956 52.6297 2.047C52.6297 2.07555 52.624 2.1041 52.624 2.13265V33.1852L37.8633 18.3841C37.7949 18.3156 37.7209 18.2528 37.6412 18.2014C37.607 18.1786 37.5729 18.1614 37.533 18.1443C37.4874 18.1215 37.4419 18.0929 37.3906 18.0701C37.3451 18.0529 37.2938 18.0415 37.2483 18.0244C37.2084 18.013 37.1685 17.9958 37.123 17.9901C37.0319 17.973 36.9351 17.9616 36.8439 17.9616C36.7528 17.9616 36.656 17.973 36.5649 17.9901C36.5193 17.9958 36.4852 18.013 36.4396 18.0244C36.3884 18.0358 36.3428 18.0472 36.2972 18.0701C36.246 18.0872 36.2061 18.1215 36.1549 18.1443C36.1207 18.1614 36.0865 18.1786 36.0467 18.2014C35.967 18.2528 35.8929 18.3156 35.8246 18.3841L21.0639 33.1852V2.13836C21.0639 2.10981 21.0582 2.08126 21.0582 2.05271C21.0582 2.00131 21.0582 1.94992 21.0411 1.89853C21.0354 1.85285 21.024 1.80716 21.0127 1.76148C21.0013 1.7158 20.9899 1.67583 20.9728 1.63015C20.9557 1.58446 20.9386 1.54449 20.9158 1.49881C20.8988 1.45884 20.876 1.41886 20.8475 1.37889C20.8247 1.33892 20.7963 1.30466 20.7678 1.26469C20.7393 1.22471 20.7108 1.19045 20.6767 1.15619C20.6482 1.12193 20.6083 1.08767 20.5799 1.05912C20.5457 1.03056 20.5115 0.996303 20.4717 0.973462C20.4318 0.94491 20.3862 0.916359 20.3407 0.893518C20.3179 0.882097 20.2951 0.859256 20.2666 0.847835C20.2553 0.847835 20.2439 0.842125 20.2325 0.836415C20.1641 0.802153 20.0901 0.779312 20.0218 0.762181C19.9933 0.756471 19.9648 0.73934 19.9364 0.73363C19.8509 0.716499 19.7655 0.705078 19.6744 0.705078C19.663 0.705078 19.6459 0.705078 19.6288 0.705078C19.6288 0.705078 19.6231 0.705078 19.6175 0.705078C19.4979 0.705078 19.3897 0.722209 19.2815 0.75076C19.253 0.756471 19.2188 0.767891 19.1903 0.779312C19.1049 0.807863 19.0195 0.847835 18.9398 0.887808C18.917 0.899228 18.8885 0.910649 18.8658 0.92778C18.7689 0.990593 18.6778 1.06483 18.5981 1.14477C18.581 1.1619 18.5696 1.18474 18.5525 1.20187C18.4842 1.27611 18.4273 1.36176 18.376 1.45313C18.3703 1.47026 18.3532 1.48168 18.3475 1.4931L1.13244 36.0118C1.13244 36.0118 1.12674 36.0347 1.12105 36.0518C1.09827 36.0975 1.08118 36.1489 1.0641 36.2003C1.05271 36.2402 1.03563 36.2802 1.02424 36.3259Z" fill="#A3EC26"/>
<path d="M83.1113 16.4998C82.969 16.0087 83.248 15.649 83.7435 15.649H86.9894C87.2685 15.649 87.5532 15.8945 87.6216 16.14L91.2889 30.2559H91.4256L97.0349 15.6832C97.1032 15.4719 97.2798 15.2949 97.6328 15.2949H98.265C98.618 15.2949 98.7946 15.4719 98.8629 15.6832L104.512 30.2559H104.654L108.253 16.14C108.322 15.8945 108.607 15.649 108.886 15.649H112.132C112.621 15.649 112.906 16.003 112.764 16.4998L106.095 40.266C106.027 40.5458 105.742 40.7571 105.463 40.7571H104.899C104.58 40.7571 104.37 40.5801 104.301 40.3688L97.9859 24.3514H97.8094L91.5623 40.3688C91.4541 40.5801 91.3174 40.7571 90.9643 40.7571H90.4006C90.1215 40.7571 89.8368 40.5458 89.7685 40.266L83.1 16.4998H83.1113Z"/>
<path d="M123.7 15.6543H120.426C120.055 15.6543 119.754 15.956 119.754 16.3281V39.7403C119.754 40.1124 120.055 40.4141 120.426 40.4141H123.7C124.071 40.4141 124.372 40.1124 124.372 39.7403V16.3281C124.372 15.956 124.071 15.6543 123.7 15.6543Z"/>
<path d="M133.781 15.9346C133.781 15.5806 134.1 15.3008 134.453 15.3008H135.336L150.005 30.9299H150.04V16.3229C150.04 15.9689 150.319 15.6491 150.712 15.6491H153.958C154.311 15.6491 154.63 15.9689 154.63 16.3229V40.1234C154.63 40.4775 154.311 40.7573 153.958 40.7573H153.109L138.365 24.5229H138.331V39.7294C138.331 40.0835 138.052 40.4032 137.659 40.4032H134.453C134.1 40.4032 133.781 40.0835 133.781 39.7294V15.9346Z"/>
<path d="M167.293 19.8969H161.895C161.507 19.8969 161.223 19.5771 161.223 19.2231V16.3223C161.223 15.9682 161.502 15.6484 161.895 15.6484H177.31C177.697 15.6484 177.982 15.9682 177.982 16.3223V19.2231C177.982 19.5771 177.703 19.8969 177.31 19.8969H171.912V39.7402C171.912 40.0942 171.593 40.414 171.24 40.414H167.959C167.606 40.414 167.288 40.0942 167.288 39.7402V19.8969H167.293Z"/>
<path d="M184.566 16.3223C184.566 15.9682 184.845 15.6484 185.238 15.6484H199.595C199.982 15.6484 200.267 15.9682 200.267 16.3223V19.2231C200.267 19.5771 199.988 19.8969 199.595 19.8969H189.156V25.6986H197.869C198.222 25.6986 198.541 26.0183 198.541 26.3724V29.3075C198.541 29.6958 198.222 29.9813 197.869 29.9813H189.156V36.1712H199.595C199.982 36.1712 200.267 36.491 200.267 36.845V39.7459C200.267 40.0999 199.988 40.4197 199.595 40.4197H185.238C184.851 40.4197 184.566 40.0999 184.566 39.7459V16.3223Z"/>
<path d="M218.882 26.932C220.75 26.932 222.373 25.3045 222.373 23.3231C222.373 21.4501 220.75 19.8912 218.882 19.8912H213.13V26.9263H218.882V26.932ZM208.512 16.3223C208.512 15.9682 208.791 15.6484 209.184 15.6484H219.269C223.5 15.6484 226.957 19.0461 226.957 23.2545C226.957 26.5094 224.804 29.159 221.741 30.3981L226.575 39.3804C226.82 39.8429 226.575 40.4083 225.977 40.4083H222.276C221.957 40.4083 221.786 40.2312 221.712 40.0885L217.02 30.7179H213.107V39.7344C213.107 40.0885 212.788 40.4083 212.435 40.4083H209.189C208.802 40.4083 208.517 40.0885 208.517 39.7344V16.3223H208.512Z"/>
<path d="M237.471 15.826C237.505 15.5462 237.716 15.2949 238.103 15.2949H238.667C238.946 15.2949 239.156 15.432 239.265 15.649L247.026 32.3459H247.135L254.897 15.649C255.005 15.4377 255.176 15.2949 255.494 15.2949H256.058C256.446 15.2949 256.656 15.5405 256.69 15.826L260.853 39.5922C260.961 40.0833 260.677 40.4088 260.215 40.4088H257.009C256.69 40.4088 256.411 40.129 256.337 39.8777L254.259 26.4757H254.151L247.977 40.3745C247.909 40.5858 247.698 40.7628 247.38 40.7628H246.747C246.429 40.7628 246.258 40.5858 246.149 40.3745L239.902 26.4757H239.794L237.75 39.8777C237.716 40.1233 237.431 40.4088 237.118 40.4088H233.94C233.479 40.4088 233.2 40.089 233.268 39.5922L237.465 15.826H237.471Z"/>
<path d="M268.125 16.3223C268.125 15.9682 268.444 15.6484 268.797 15.6484H272.145C272.533 15.6484 272.817 15.9682 272.817 16.3223V30.7864C272.817 33.79 274.862 36.1598 277.931 36.1598C281.001 36.1598 283.079 33.79 283.079 30.8207V16.3223C283.079 15.9682 283.358 15.6484 283.746 15.6484H287.1C287.453 15.6484 287.772 15.9682 287.772 16.3223V31.032C287.772 36.4053 283.501 40.7566 277.931 40.7566C272.362 40.7566 268.125 36.4053 268.125 31.032V16.3223Z"/>
<path d="M300.264 19.8969H294.865C294.478 19.8969 294.199 19.5771 294.199 19.2231V16.3223C294.199 15.9682 294.478 15.6484 294.865 15.6484H310.281C310.668 15.6484 310.953 15.9682 310.953 16.3223V19.2231C310.953 19.5771 310.674 19.8969 310.281 19.8969H304.882V39.7402C304.882 40.0942 304.564 40.414 304.21 40.414H300.93C300.577 40.414 300.258 40.0942 300.258 39.7402V19.8969H300.264Z"/>
<path d="M317.531 16.3223C317.531 15.9682 317.81 15.6484 318.203 15.6484H332.56C332.947 15.6484 333.232 15.9682 333.232 16.3223V19.2231C333.232 19.5771 332.947 19.8969 332.56 19.8969H322.121V25.6986H330.834C331.187 25.6986 331.5 26.0183 331.5 26.3724V29.3075C331.5 29.6958 331.181 29.9813 330.834 29.9813H322.121V36.1712H332.56C332.947 36.1712 333.232 36.491 333.232 36.845V39.7459C333.232 40.0999 332.947 40.4197 332.56 40.4197H318.203C317.816 40.4197 317.531 40.0999 317.531 39.7459V16.3223Z"/>
</g>
<defs>
<clipPath id="clip0_3846_56588">
<rect width="332.246" height="54.9844" transform="translate(0.980469 0.699219)"/>
</clipPath>
</defs>
</svg>
