<svg width="247" height="79" viewBox="0 0 247 79" fill="none" xmlns="http://www.w3.org/2000/svg">
<g clip-path="url(#clip0_3846_56601)">
<path d="M21.876 12.4297L14.8988 29.8673L7.92158 12.4297H1.52734L11.8612 36.675L7.17293 47.0461H13.5672L28.2641 12.4297H21.8699H21.876Z" fill="white"/>
<path d="M36.0027 0.541992C33.9225 0.541992 32.2227 2.2695 32.2227 4.26186C32.2227 6.35654 33.9286 8.02988 36.0027 8.02988C38.0769 8.02988 39.8381 6.35654 39.8381 4.26186C39.8381 2.16718 38.083 0.541992 36.0027 0.541992ZM33.0204 12.4299V38.0356H38.9299V12.4299H33.0204Z" fill="white"/>
<path d="M70.9624 24.685C70.9624 17.1971 65.2616 11.9062 58.2291 11.9062C50.7181 11.9062 44.8086 17.6666 44.8086 25.1064C44.8086 32.5461 50.7181 38.5653 58.3396 38.5653C64.7338 38.5653 69.686 35.0019 70.6433 29.6087H64.6786C64.1447 31.8057 61.641 33.2744 58.4439 33.2744C54.2343 33.2744 51.571 30.9149 50.8285 27.1469H70.8028C70.9072 26.6774 70.9624 25.3652 70.9624 24.685ZM50.9881 22.169C51.841 19.027 54.4 17.1911 57.91 17.1911C61.4201 17.1911 63.9852 19.2316 64.5129 22.169H50.9819H50.9881Z" fill="white"/>
<path d="M82.4507 1.37793H76.5352V38.0349H82.4507V1.37793Z" fill="white"/>
<path d="M109.536 1.37793V16.9315C107.67 13.7353 104.473 11.9055 100.319 11.9055C93.3967 11.9055 87.8555 17.8224 87.8555 25.2079C87.8555 32.5935 93.3967 38.5645 100.319 38.5645C104.473 38.5645 107.67 36.7287 109.536 33.5385V38.0409H115.5V1.37793H109.536ZM101.601 33.0088C97.183 33.0088 93.7158 29.5538 93.7158 25.2079C93.7158 20.8621 97.1768 17.4552 101.601 17.4552C106.026 17.4552 109.536 20.8079 109.536 25.2079C109.536 29.608 106.124 33.0088 101.601 33.0088Z" fill="white"/>
<path d="M59.8656 51.7051H53.367L46.3898 69.5099L39.3574 51.7051H32.9141L43.8309 77.3108H48.9426L59.8595 51.7051H59.8656Z" fill="white"/>
<path d="M88.1382 63.9604C88.1382 56.4725 82.4373 51.1816 75.4049 51.1816C67.8938 51.1816 61.9844 56.942 61.9844 64.3817C61.9844 71.8215 67.8938 77.8407 75.5154 77.8407C81.9035 77.8407 86.8618 74.2773 87.8191 68.8841H81.8544C81.3205 71.0811 78.8168 72.5498 75.6197 72.5498C71.41 72.5498 68.7468 70.1903 68.0043 66.4223H87.9786C88.0829 65.9528 88.1382 64.6406 88.1382 63.9604ZM68.1638 61.4444C69.0168 58.3024 71.5757 56.4665 75.0858 56.4665C78.5959 56.4665 81.1548 58.507 81.6887 61.4444H68.1577H68.1638Z" fill="white"/>
<path d="M107.813 51.1816C104.352 51.1816 101.578 52.855 99.9273 55.7382V51.7053H94.0117V77.311H99.9273V63.4307C99.9273 59.3978 102.486 56.7795 106.371 56.7795C110.255 56.7795 112.654 59.3978 112.654 63.4307V77.311H118.619V62.7024C118.619 55.5817 114.465 51.1816 107.807 51.1816H107.813Z" fill="white"/>
<path d="M139.906 57.2544V51.7047H133.089V44.8428H127.124V51.7047H122.172V57.2544H127.124V67.6736C127.124 74.1683 130.959 77.6233 136.709 77.6233C137.667 77.6233 138.998 77.521 139.906 77.3103V71.9171C139.323 72.0736 138.63 72.1278 137.992 72.1278C135.114 72.1278 133.089 70.8156 133.089 67.5713V57.2544H139.906Z" fill="white"/>
<path d="M163.664 51.7051V65.5854C163.664 69.6182 161.106 72.2366 157.27 72.2366C153.435 72.2366 150.931 69.6182 150.931 65.5854V51.7051H145.016V66.2655C145.016 73.4404 149.115 77.8404 155.828 77.8404C159.289 77.8404 162.008 76.1671 163.658 73.2839V77.3168H169.623V51.7111H163.658L163.664 51.7051Z" fill="white"/>
<path d="M189.764 51.1816C186.678 51.1816 184.278 52.6503 182.732 55.1122V51.7053H176.816V77.311H182.732V63.6414C182.732 59.0307 185.819 56.4665 189.605 56.4665C190.458 56.4665 191.366 56.623 192.213 56.8337V51.4946C191.415 51.3381 190.562 51.1816 189.764 51.1816Z" fill="white"/>
<path d="M220.226 63.9604C220.226 56.4725 214.525 51.1816 207.499 51.1816C199.988 51.1816 194.078 56.942 194.078 64.3817C194.078 71.8215 199.988 77.8407 207.609 77.8407C214.003 77.8407 218.956 74.2773 219.913 68.8841H213.948C213.414 71.0811 210.911 72.5498 207.713 72.5498C203.504 72.5498 200.841 70.1903 200.098 66.4223H220.072C220.177 65.9528 220.232 64.6406 220.232 63.9604H220.226ZM200.251 61.4444C201.104 58.3024 203.663 56.4665 207.173 56.4665C210.684 56.4665 213.249 58.507 213.776 61.4444H200.245H200.251Z" fill="white"/>
<path d="M235.751 77.8405C241.501 77.8405 245.821 74.3855 245.821 69.7748C245.821 59.0907 230.694 63.8579 230.694 58.6754C230.694 57.0502 232.345 56.057 234.689 56.057C237.408 56.057 239.218 57.4715 239.482 59.1991H245.447C244.858 54.0165 240.175 51.1875 234.794 51.1875C228.719 51.1875 224.938 54.5944 224.938 59.0426C224.938 68.7816 240.016 64.3334 240.016 69.829C240.016 71.6106 238.31 72.8145 235.438 72.8145C232.566 72.8145 230.271 71.3458 230.056 69.0946H224.355C224.889 74.5902 229.363 77.8405 235.751 77.8405Z" fill="white"/>
<path d="M21.876 12.4297L14.8988 29.8673L7.92158 12.4297H1.52734L11.8612 36.675L7.17293 47.0461H13.5672L28.2641 12.4297H21.8699H21.876Z" stroke="white" stroke-width="1.8"/>
<path d="M36.0027 0.541992C33.9225 0.541992 32.2227 2.2695 32.2227 4.26186C32.2227 6.35654 33.9286 8.02988 36.0027 8.02988C38.0769 8.02988 39.8381 6.35654 39.8381 4.26186C39.8381 2.16718 38.083 0.541992 36.0027 0.541992V0.541992ZM33.0204 12.4299V38.0356H38.9299V12.4299H33.0204Z" stroke="white" stroke-width="1.8"/>
<path d="M70.9624 24.685C70.9624 17.1971 65.2616 11.9062 58.2291 11.9062C50.7181 11.9062 44.8086 17.6666 44.8086 25.1064C44.8086 32.5461 50.7181 38.5653 58.3396 38.5653C64.7338 38.5653 69.686 35.0019 70.6433 29.6087H64.6786C64.1447 31.8057 61.641 33.2744 58.4439 33.2744C54.2343 33.2744 51.571 30.9149 50.8285 27.1469H70.8028C70.9072 26.6774 70.9624 25.3652 70.9624 24.685V24.685ZM50.9881 22.169C51.841 19.027 54.4 17.1911 57.91 17.1911C61.4201 17.1911 63.9852 19.2316 64.5129 22.169H50.9819H50.9881Z" stroke="white" stroke-width="1.8"/>
<path d="M82.4507 1.37793H76.5352V38.0349H82.4507V1.37793Z" stroke="white" stroke-width="1.8"/>
<path d="M109.536 1.37793V16.9315C107.67 13.7353 104.473 11.9055 100.319 11.9055C93.3967 11.9055 87.8555 17.8224 87.8555 25.2079C87.8555 32.5935 93.3967 38.5645 100.319 38.5645C104.473 38.5645 107.67 36.7287 109.536 33.5385V38.0409H115.5V1.37793H109.536ZM101.601 33.0088C97.183 33.0088 93.7158 29.5538 93.7158 25.2079C93.7158 20.8621 97.1768 17.4552 101.601 17.4552C106.026 17.4552 109.536 20.8079 109.536 25.2079C109.536 29.608 106.124 33.0088 101.601 33.0088Z" stroke="white" stroke-width="1.8"/>
<path d="M59.8656 51.7051H53.367L46.3898 69.5099L39.3574 51.7051H32.9141L43.8309 77.3108H48.9426L59.8595 51.7051H59.8656Z" stroke="white" stroke-width="1.8"/>
<path d="M88.1382 63.9604C88.1382 56.4725 82.4373 51.1816 75.4049 51.1816C67.8938 51.1816 61.9844 56.942 61.9844 64.3817C61.9844 71.8215 67.8938 77.8407 75.5154 77.8407C81.9035 77.8407 86.8618 74.2773 87.8191 68.8841H81.8544C81.3205 71.0811 78.8168 72.5498 75.6197 72.5498C71.41 72.5498 68.7468 70.1903 68.0043 66.4223H87.9786C88.0829 65.9528 88.1382 64.6406 88.1382 63.9604V63.9604ZM68.1638 61.4444C69.0168 58.3024 71.5757 56.4665 75.0858 56.4665C78.5959 56.4665 81.1548 58.507 81.6887 61.4444H68.1577H68.1638Z" stroke="white" stroke-width="1.8"/>
<path d="M107.813 51.1816C104.352 51.1816 101.578 52.855 99.9273 55.7382V51.7053H94.0117V77.311H99.9273V63.4307C99.9273 59.3978 102.486 56.7795 106.371 56.7795C110.255 56.7795 112.654 59.3978 112.654 63.4307V77.311H118.619V62.7024C118.619 55.5817 114.465 51.1816 107.807 51.1816H107.813Z" stroke="white" stroke-width="1.8"/>
<path d="M139.906 57.2544V51.7047H133.089V44.8428H127.124V51.7047H122.172V57.2544H127.124V67.6736C127.124 74.1683 130.959 77.6233 136.709 77.6233C137.667 77.6233 138.998 77.521 139.906 77.3103V71.9171C139.323 72.0736 138.63 72.1278 137.992 72.1278C135.114 72.1278 133.089 70.8156 133.089 67.5713V57.2544H139.906V57.2544Z" stroke="white" stroke-width="1.8"/>
<path d="M163.664 51.7051V65.5854C163.664 69.6182 161.106 72.2366 157.27 72.2366C153.435 72.2366 150.931 69.6182 150.931 65.5854V51.7051H145.016V66.2655C145.016 73.4404 149.115 77.8404 155.828 77.8404C159.289 77.8404 162.008 76.1671 163.658 73.2839V77.3168H169.623V51.7111H163.658L163.664 51.7051Z" stroke="white" stroke-width="1.8"/>
<path d="M189.764 51.1816C186.678 51.1816 184.278 52.6503 182.732 55.1122V51.7053H176.816V77.311H182.732V63.6414C182.732 59.0307 185.819 56.4665 189.605 56.4665C190.458 56.4665 191.366 56.623 192.213 56.8337V51.4946C191.415 51.3381 190.562 51.1816 189.764 51.1816V51.1816Z" stroke="white" stroke-width="1.8"/>
<path d="M220.226 63.9604C220.226 56.4725 214.525 51.1816 207.499 51.1816C199.988 51.1816 194.078 56.942 194.078 64.3817C194.078 71.8215 199.988 77.8407 207.609 77.8407C214.003 77.8407 218.956 74.2773 219.913 68.8841H213.948C213.414 71.0811 210.911 72.5498 207.713 72.5498C203.504 72.5498 200.841 70.1903 200.098 66.4223H220.072C220.177 65.9528 220.232 64.6406 220.232 63.9604H220.226ZM200.251 61.4444C201.104 58.3024 203.663 56.4665 207.173 56.4665C210.684 56.4665 213.249 58.507 213.776 61.4444H200.245H200.251Z" stroke="white" stroke-width="1.8"/>
<path d="M235.751 77.8405C241.501 77.8405 245.821 74.3855 245.821 69.7748C245.821 59.0907 230.694 63.8579 230.694 58.6754C230.694 57.0502 232.345 56.057 234.689 56.057C237.408 56.057 239.218 57.4715 239.482 59.1991H245.447C244.858 54.0165 240.175 51.1875 234.794 51.1875C228.719 51.1875 224.938 54.5944 224.938 59.0426C224.938 68.7816 240.016 64.3334 240.016 69.829C240.016 71.6106 238.31 72.8145 235.438 72.8145C232.566 72.8145 230.271 71.3458 230.056 69.0946H224.355C224.889 74.5902 229.363 77.8405 235.751 77.8405V77.8405Z" stroke="white" stroke-width="1.8"/>
</g>
<defs>
<clipPath id="clip0_3846_56601">
<rect width="245.675" height="78.382" fill="white" transform="translate(0.699219)"/>
</clipPath>
</defs>
</svg>
