<svg width="255" height="52" viewBox="0 0 255 52" fill="none" xmlns="http://www.w3.org/2000/svg">
<g clip-path="url(#clip0_3846_56707)">
<path d="M151.019 23.8497C150.855 26.1884 149.993 28.0214 148.457 29.3646C146.921 30.7077 144.883 31.3793 142.36 31.3793C139.601 31.3793 137.43 30.4391 135.847 28.5666C134.264 26.6941 133.473 24.1184 133.473 20.8553V19.528C133.473 17.4421 133.833 15.6012 134.57 14.0132C135.299 12.4251 136.341 11.2004 137.697 10.355C139.052 9.50966 140.628 9.08301 142.422 9.08301C144.907 9.08301 146.905 9.75458 148.425 11.0977C149.946 12.4409 150.823 14.3213 151.058 16.7469H146.623C146.513 15.3484 146.129 14.3292 145.463 13.6971C144.797 13.0651 143.786 12.749 142.422 12.749C140.941 12.749 139.836 13.2863 139.099 14.3529C138.363 15.4195 137.987 17.0787 137.971 19.3225V20.9659C137.971 23.3125 138.324 25.027 139.029 26.1094C139.734 27.1918 140.847 27.737 142.36 27.737C143.731 27.737 144.75 27.4209 145.432 26.7889C146.113 26.1568 146.497 25.1771 146.591 23.8576H151.027L151.019 23.8497Z"/>
<path d="M166.082 26.6068H158.308L156.827 31.0787H152.109L160.126 9.375H164.241L172.297 31.0787H167.579L166.082 26.6068ZM159.499 22.9882H164.883L162.18 14.8661L159.499 22.9882Z"/>
<path d="M178.744 23.4307V31.0787H174.309V9.375H182.71C184.324 9.375 185.75 9.67523 186.973 10.2678C188.195 10.8604 189.144 11.7137 189.802 12.8119C190.46 13.9101 190.789 15.1584 190.789 16.5648C190.789 18.6901 190.068 20.3651 188.626 21.5977C187.184 22.8302 185.186 23.4386 182.631 23.4386H178.744V23.4307ZM178.744 19.8121H182.71C183.885 19.8121 184.779 19.5355 185.39 18.9746C186.001 18.4136 186.315 17.6235 186.315 16.5885C186.315 15.5535 186.001 14.6686 185.382 14.0128C184.763 13.357 183.901 13.0173 182.811 13.0015H178.744V19.8121Z"/>
<path d="M198.557 31.0787H194.121V9.375H198.557V31.0787Z"/>
<path d="M218.879 12.9936H212.28V31.0787H207.844V12.9936H201.34V9.375H218.879V12.9936Z"/>
<path d="M231.785 26.6068H224.011L222.53 31.0787H217.812L225.83 9.375H229.944L238 31.0787H233.282L231.785 26.6068ZM225.203 22.9882H230.586L227.883 14.8661L225.203 22.9882Z"/>
<path d="M244.44 27.4838H253.859V31.0787H240.004V9.375H244.44V27.4838Z"/>
<path d="M254.575 36.1201H132.094V41.2083H254.575V36.1201Z" fill="#65C1C0"/>
<path d="M13.2262 42.291H37.7083V50.3973H0.71875V44.4795L24.7306 9.60505H0.750097V1.43555H37.1754V7.21899L13.2262 42.291Z"/>
<path d="M44.0078 50.3973V1.43555H61.0214C66.9147 1.43555 71.3816 2.57327 74.4301 4.84873C77.4786 7.12418 78.999 10.4583 78.999 14.8512C78.999 17.2531 78.3877 19.3626 77.1652 21.1877C75.9426 23.0128 74.2421 24.356 72.0634 25.2093C74.5555 25.8335 76.5147 27.1055 77.9488 29.0096C79.383 30.9137 80.104 33.2445 80.104 36.0019C80.104 40.7108 78.615 44.2741 75.637 46.6918C72.659 49.1094 68.4115 50.342 62.8944 50.3894H44.0156L44.0078 50.3973ZM54.0154 21.9462H61.4211C66.468 21.8593 68.9914 19.8288 68.9914 15.8625C68.9914 13.6424 68.3488 12.0464 67.0714 11.0746C65.794 10.1028 63.7721 9.61295 61.0214 9.61295H54.0154V21.9541V21.9462ZM54.0154 29.0728V42.291H62.5888C64.9476 42.291 66.7893 41.7221 68.1059 40.5923C69.4303 39.4625 70.0886 37.8981 70.0886 35.8992C70.0886 31.4194 67.7846 29.1439 63.1844 29.0728H54.0154Z"/>
<path d="M112.783 37.5502C112.783 35.646 112.117 34.1844 110.785 33.1652C109.453 32.146 107.047 31.0714 103.583 29.9337C100.119 28.796 97.3686 27.6899 95.3467 26.5837C89.8296 23.5814 87.0789 19.5362 87.0789 14.448C87.0789 11.8012 87.8156 9.44674 89.2967 7.3688C90.7779 5.29878 92.9016 3.6791 95.668 2.50977C98.4344 1.34834 101.546 0.763672 104.994 0.763672C108.442 0.763672 111.553 1.39574 114.265 2.65988C116.976 3.92402 119.084 5.71752 120.589 8.02458C122.094 10.3316 122.838 12.9547 122.838 15.8939H112.831C112.831 13.65 112.133 11.9118 110.73 10.6635C109.327 9.41513 107.36 8.79886 104.829 8.79886C102.298 8.79886 100.48 9.32032 99.124 10.3632C97.7683 11.4062 97.0865 12.7809 97.0865 14.4796C97.0865 16.0756 97.878 17.4029 99.4688 18.4774C101.06 19.552 103.395 20.5633 106.491 21.5035C112.18 23.2259 116.326 25.367 118.928 27.9269C121.529 30.4789 122.83 33.6629 122.83 37.479C122.83 41.7139 121.239 45.0402 118.058 47.45C114.876 49.8597 110.597 51.0686 105.213 51.0686C101.475 51.0686 98.0739 50.3812 95.0097 48.9985C91.9377 47.6238 89.6023 45.7355 87.988 43.3336C86.3736 40.9317 85.5664 38.1585 85.5664 34.9982H95.6053C95.6053 40.4024 98.8105 43.1045 105.213 43.1045C107.596 43.1045 109.453 42.6146 110.785 41.6428C112.117 40.671 112.783 39.3041 112.783 37.5581V37.5502Z"/>
</g>
<defs>
<clipPath id="clip0_3846_56707">
<rect width="253.864" height="50.3049" transform="translate(0.71875 0.763672)"/>
</clipPath>
</defs>
</svg>
