<svg width="35" height="30" viewBox="0 0 35 30" fill="none" xmlns="http://www.w3.org/2000/svg">
<path fill-rule="evenodd" clip-rule="evenodd" d="M1.25 3.4239C1.94036 3.4239 2.5 3.98355 2.5 4.6739C2.5 5.52965 3.19442 6.22036 4.04646 6.22036H33.25C33.9404 6.22036 34.5 6.78001 34.5 7.47036V15.1783C34.5 15.8687 33.9404 16.4283 33.25 16.4283H27.0664V19.6805H33.25C33.9404 19.6805 34.5 20.2402 34.5 20.9305V28.6385C34.5 29.3289 33.9404 29.8885 33.25 29.8885H4.03928C1.81868 29.8757 0 28.0762 0 25.8332V4.6739C0 3.98355 0.559644 3.4239 1.25 3.4239ZM2.5 8.41402V25.8332C2.5 26.6866 3.19305 27.382 4.05077 27.3885H32V22.1805H25.8164C25.126 22.1805 24.5664 21.6209 24.5664 20.9305V15.1783C24.5664 14.488 25.126 13.9283 25.8164 13.9283H32V8.72036H4.04646C3.49935 8.72036 2.9769 8.61149 2.5 8.41402Z" fill="black"/>
<path fill-rule="evenodd" clip-rule="evenodd" d="M4.04646 3.12744C3.19442 3.12744 2.5 3.81816 2.5 4.6739C2.5 5.52337 3.19699 6.22036 4.04646 6.22036H28.4956V3.12744H4.04646ZM0 4.6739C0 2.4323 1.81886 0.627441 4.04646 0.627441H29.7456C30.4359 0.627441 30.9956 1.18709 30.9956 1.87744V7.47036C30.9956 8.16072 30.4359 8.72036 29.7456 8.72036H4.04646C1.81628 8.72036 0 6.90408 0 4.6739Z" fill="black"/>
<path fill-rule="evenodd" clip-rule="evenodd" d="M24.5663 15.1783C24.5663 14.488 25.126 13.9283 25.8163 13.9283H33.25C33.9403 13.9283 34.5 14.488 34.5 15.1783V20.9305C34.5 21.6209 33.9403 22.1805 33.25 22.1805H25.8163C25.126 22.1805 24.5663 21.6209 24.5663 20.9305V15.1783ZM27.0663 16.4283V19.6805H32V16.4283H27.0663Z" fill="black"/>
<path fill-rule="evenodd" clip-rule="evenodd" d="M6.93805 18.0544C6.93805 17.3641 7.49769 16.8044 8.18805 16.8044H20.7898C21.4802 16.8044 22.0398 17.3641 22.0398 18.0544C22.0398 18.7448 21.4802 19.3044 20.7898 19.3044H8.18805C7.49769 19.3044 6.93805 18.7448 6.93805 18.0544Z" fill="black"/>
</svg>
