<svg width="22" height="22" viewBox="0 0 22 22" fill="none" xmlns="http://www.w3.org/2000/svg">
<path d="M7.604 10.6493C7.604 9.94216 8.10276 9.4707 8.61458 9.4707C9.13553 9.4707 9.6369 9.95143 9.62515 10.6387V10.6493C9.62515 11.3578 9.12509 11.828 8.61458 11.828C8.11582 11.828 7.604 11.3525 7.604 10.6493V10.6493Z" fill="#EA3B4D"/>
<path d="M13.7242 10.6493C13.7242 10.2758 13.8365 10.0136 13.9775 9.85601C14.0583 9.76893 14.1567 9.70073 14.2661 9.65614C14.3755 9.61154 14.4931 9.59163 14.6108 9.59777C15.1213 9.59777 15.6213 10.0679 15.6213 10.7764C15.6213 11.4836 15.1213 11.955 14.6108 11.955C14.4019 11.955 14.1982 11.8517 14.0232 11.6173C13.825 11.3354 13.7203 10.9968 13.7242 10.6506V10.6493Z" fill="#EA3B4D"/>
<path fill-rule="evenodd" clip-rule="evenodd" d="M6.79497 16.4958C7.15664 16.6389 7.55617 16.7832 7.99356 16.9156C7.22323 17.7261 6.02986 18.8624 6.02986 18.8624C2.32442 18.7432 1.8335 15.6642 1.8335 15.6642C1.8335 10.1895 4.24895 3.62095 4.24895 3.62095C6.6618 1.78414 8.95844 1.83314 8.95844 1.83314L9.17126 3.28458C8.05884 3.5852 6.9177 4.08049 5.69431 4.75853L6.36411 6.00338C8.38264 4.88699 10.0265 4.36654 11.6285 4.36521C13.2292 4.36521 14.8704 4.88301 16.8837 6.00338L17.5562 4.75853C16.2727 4.04473 15.0806 3.53355 13.916 3.23955L14.2907 1.83314C14.2907 1.83314 16.5887 1.78282 19.0028 3.61963C19.0028 3.61963 21.417 10.1868 21.417 15.6628C21.417 15.6628 20.926 18.7419 17.2206 18.861C17.2206 18.861 16.1056 17.746 15.3692 16.9421C15.7557 16.8229 16.1474 16.6773 16.5443 16.5104C17.2668 16.2327 17.9562 15.8733 18.5994 15.439L17.829 14.2538C17.1867 14.6842 16.5795 14.9822 16.0429 15.1848L16.0338 15.1887L16.0272 15.1914L16.0142 15.1967C15.2837 15.5134 14.5196 15.7435 13.7371 15.8827L13.7254 15.884C12.3753 16.136 10.9907 16.1306 9.6426 15.8681C8.84302 15.7091 8.05943 15.4764 7.30157 15.1729C6.64352 14.912 6.08078 14.6352 5.53632 14.2485L4.73465 15.4112C5.40054 15.884 6.07164 16.2085 6.79236 16.4945L6.79497 16.4958ZM8.61505 8.05207C7.21409 8.05207 6.20482 9.28368 6.20482 10.649C6.20482 12.021 7.23628 13.2473 8.61505 13.2473C10.0134 13.2473 11.0214 12.0197 11.024 10.6557C11.0436 9.27043 10.003 8.05207 8.61505 8.05207V8.05207ZM14.6106 8.17921C13.9486 8.17921 13.3585 8.4348 12.9394 8.9036C12.5281 9.36711 12.3257 9.98688 12.3257 10.649C12.3257 11.3112 12.5294 11.9667 12.908 12.4739C13.2906 12.9878 13.8794 13.3744 14.6106 13.3744C16.0116 13.3744 17.0195 12.1428 17.0195 10.7762C17.0195 9.40948 16.0116 8.17921 14.6106 8.17921V8.17921Z" fill="#EA3B4D"/>
</svg>
