<svg width="24" height="23" viewBox="0 0 24 23" fill="none" xmlns="http://www.w3.org/2000/svg">
<path fill-rule="evenodd" clip-rule="evenodd" d="M8.54181 2H16.4582C19.5063 2 22 4.49375 22 7.54181V15.4582C22 18.5063 19.5063 21 16.4582 21H8.54181C5.49375 21 3 18.5063 3 15.4582V7.54181C3 4.49375 5.49375 2 8.54181 2ZM16.986 7.34167C17.1812 7.47216 17.4108 7.5418 17.6457 7.5418C17.8017 7.54214 17.9563 7.51165 18.1005 7.45209C18.2447 7.39253 18.3758 7.30508 18.4861 7.19474C18.5965 7.0844 18.6839 6.95336 18.7435 6.80913C18.803 6.66491 18.8335 6.51034 18.8332 6.3543C18.8332 6.11944 18.7635 5.88985 18.6331 5.69456C18.5026 5.49928 18.3171 5.34707 18.1001 5.25719C17.8831 5.16732 17.6444 5.1438 17.414 5.18962C17.1837 5.23544 16.9721 5.34854 16.806 5.51461C16.6399 5.68069 16.5268 5.89228 16.481 6.12263C16.4352 6.35298 16.4587 6.59175 16.5486 6.80874C16.6385 7.02573 16.7907 7.21119 16.986 7.34167ZM14.2594 8.86689C13.7386 8.51892 13.1263 8.33319 12.5 8.33319C11.6604 8.33408 10.8554 8.66802 10.2617 9.26171C9.66802 9.85541 9.33409 10.6604 9.33319 11.5C9.33319 12.1263 9.51892 12.7386 9.86689 13.2594C10.2149 13.7802 10.7095 14.1861 11.2881 14.4257C11.8668 14.6654 12.5035 14.7281 13.1178 14.606C13.7321 14.4838 14.2964 14.1821 14.7393 13.7393C15.1822 13.2964 15.4838 12.7321 15.606 12.1178C15.7281 11.5035 15.6654 10.8668 15.4257 10.2881C15.1861 9.70945 14.7802 9.21486 14.2594 8.86689ZM9.86104 7.55051C10.6422 7.02858 11.5605 6.74999 12.5 6.74999C13.7598 6.74999 14.968 7.25044 15.8588 8.14124C16.7496 9.03203 17.25 10.2402 17.25 11.5C17.25 12.4395 16.9714 13.3578 16.4495 14.139C15.9275 14.9201 15.1857 15.5289 14.3177 15.8884C13.4498 16.2479 12.4947 16.342 11.5733 16.1587C10.6519 15.9754 9.80554 15.523 9.14124 14.8587C8.47694 14.1945 8.02455 13.3481 7.84127 12.4267C7.65799 11.5053 7.75205 10.5502 8.11157 9.68225C8.47109 8.8143 9.07991 8.07245 9.86104 7.55051Z" fill="#EA3B4D"/>
</svg>
