<svg width="24" height="23" viewBox="0 0 24 23" fill="none" xmlns="http://www.w3.org/2000/svg">
<path d="M4.54975 7.26296C4.56282 7.14104 4.54499 7.01795 4.49771 6.90371C4.45043 6.78946 4.37504 6.68728 4.27766 6.60548L2.27096 4.33989V4H8.50419L13.3225 13.8993L17.5581 4H23.5V4.33883L21.7824 5.88003C21.7105 5.93248 21.6549 6.00201 21.6215 6.0814C21.588 6.16078 21.5778 6.24712 21.5919 6.33144V17.6605C21.5775 17.7448 21.5876 17.8312 21.6211 17.9106C21.6546 17.9901 21.7103 18.0596 21.7824 18.1119L23.4592 19.6531V19.9919H15.0288V19.6531L16.7623 18.0736C16.9346 17.9143 16.9346 17.8665 16.9346 17.6233V8.46533L12.106 19.9547H11.4542L5.83313 8.46533V16.1649C5.78665 16.4889 5.90115 16.815 6.14491 17.0497L8.40329 19.617V19.9558H2V19.617L4.25838 17.0497C4.3772 16.9337 4.46542 16.7933 4.51601 16.6397C4.5666 16.4861 4.57815 16.3235 4.54975 16.1649V7.26296Z" fill="#EA3B4D"/>
</svg>
