<svg width="24" height="23" viewBox="0 0 24 23" fill="none" xmlns="http://www.w3.org/2000/svg">
<path d="M10.0933 11.5C9.80447 11.5003 9.52758 11.6152 9.32336 11.8195C9.11914 12.0237 9.00425 12.3006 9.00391 12.5894C9.00391 13.1918 9.49216 13.6919 10.0933 13.6801C10.3758 13.6703 10.6435 13.5511 10.8399 13.3478C11.0364 13.1444 11.1461 12.8727 11.1461 12.59C11.1461 12.3073 11.0364 12.0356 10.8399 11.8323C10.6435 11.6289 10.3758 11.5098 10.0933 11.5ZM12.5122 16.2867C12.9257 16.2867 14.3537 16.2368 15.1057 15.4848C15.1545 15.4292 15.1813 15.3578 15.1813 15.2839C15.1813 15.21 15.1545 15.1387 15.1057 15.0831C15.0797 15.0562 15.0484 15.0348 15.0139 15.0202C14.9795 15.0056 14.9424 14.9981 14.9049 14.9981C14.8674 14.9981 14.8304 15.0056 14.7959 15.0202C14.7614 15.0348 14.7302 15.0562 14.7041 15.0831C14.2408 15.5596 13.2262 15.7223 12.5122 15.7223C11.7969 15.7223 10.7955 15.5596 10.319 15.0831C10.293 15.0562 10.2618 15.0348 10.2273 15.0202C10.1928 15.0056 10.1557 14.9981 10.1182 14.9981C10.0808 14.9981 10.0437 15.0056 10.0092 15.0202C9.97468 15.0348 9.94347 15.0562 9.91741 15.0831C9.8905 15.1092 9.8691 15.1404 9.85448 15.1749C9.83987 15.2094 9.83234 15.2465 9.83234 15.2839C9.83234 15.3214 9.83987 15.3585 9.85448 15.393C9.8691 15.4275 9.8905 15.4587 9.91741 15.4848C10.6577 16.2237 12.0857 16.2854 12.5122 16.2854V16.2867ZM13.8142 12.6025C13.8142 13.2036 14.3038 13.6919 14.9049 13.6919C15.506 13.6919 15.9943 13.1918 15.9943 12.6025C15.9805 12.3228 15.8598 12.0592 15.657 11.8661C15.4542 11.673 15.1849 11.5653 14.9049 11.5653C14.6249 11.5653 14.3556 11.673 14.1528 11.8661C13.95 12.0592 13.8293 12.3228 13.8155 12.6025H13.8142Z" fill="#EA3B4D"/>
<path d="M23 11.5C23 14.2848 21.8938 16.9555 19.9246 18.9246C17.9555 20.8938 15.2848 22 12.5 22C9.71523 22 7.04451 20.8938 5.07538 18.9246C3.10625 16.9555 2 14.2848 2 11.5C2 8.71523 3.10625 6.04451 5.07538 4.07538C7.04451 2.10625 9.71523 1 12.5 1C15.2848 1 17.9555 2.10625 19.9246 4.07538C21.8938 6.04451 23 8.71523 23 11.5ZM17.9757 9.97094C17.5623 9.97094 17.1856 10.1337 16.91 10.3975C15.8587 9.64544 14.4163 9.15719 12.8137 9.09419L13.5146 5.81163L15.7957 6.29988C15.8057 6.51287 15.878 6.71823 16.0036 6.89052C16.1293 7.06281 16.3027 7.19444 16.5024 7.2691C16.7022 7.34376 16.9194 7.35816 17.1272 7.31053C17.3351 7.26289 17.5244 7.15531 17.6716 7.00111C17.8189 6.84692 17.9177 6.65289 17.9557 6.44309C17.9938 6.23328 17.9694 6.01693 17.8857 5.82083C17.802 5.62474 17.6625 5.45753 17.4846 5.33994C17.3068 5.22235 17.0983 5.15955 16.8851 5.15931C16.6811 5.16003 16.4815 5.21798 16.3088 5.32657C16.1362 5.43516 15.9975 5.59003 15.9086 5.77356L13.3649 5.23544C13.3307 5.22806 13.2953 5.22751 13.2609 5.23382C13.2264 5.24012 13.1935 5.25316 13.1641 5.27219C13.1335 5.29132 13.1074 5.31702 13.0879 5.34744C13.0684 5.37785 13.0559 5.41222 13.0513 5.44806L12.2743 9.10731C10.6468 9.15719 9.17938 9.64544 8.11363 10.4093C7.838 10.1468 7.46263 9.98406 7.0505 9.98406C6.70099 9.98355 6.36188 10.103 6.08985 10.3224C5.81782 10.5419 5.62933 10.848 5.55589 11.1897C5.48245 11.5315 5.52849 11.888 5.68634 12.1999C5.84418 12.5117 6.10427 12.7599 6.42312 12.9031C6.39687 13.054 6.38506 13.2049 6.38506 13.3664C6.38506 15.7223 9.1295 17.6399 12.5131 17.6399C15.8954 17.6399 18.6399 15.7354 18.6399 13.3664C18.6399 13.2168 18.6268 13.054 18.6018 12.9031C19.1281 12.6655 19.5048 12.1261 19.5048 11.5C19.5048 10.6469 18.8158 9.97094 17.9757 9.97094Z" fill="#EA3B4D"/>
</svg>
