<svg width="24" height="23" viewBox="0 0 24 23" fill="none" xmlns="http://www.w3.org/2000/svg">
<path d="M22.8182 4.15977C22.0158 4.5148 21.1427 4.77032 20.2433 4.86983C21.1771 4.30081 21.8763 3.40184 22.2099 2.34159C21.3337 2.87626 20.3738 3.25118 19.3728 3.44971C18.9544 2.99094 18.4484 2.62545 17.8864 2.37604C17.3243 2.12662 16.7181 1.99862 16.1057 2.00001C13.6279 2.00001 11.6351 4.06026 11.6351 6.5885C11.6351 6.94353 11.677 7.29856 11.7452 7.64014C8.03499 7.44111 4.72595 5.62292 2.52604 2.83917C2.12519 3.54147 1.91514 4.34112 1.91772 5.15493C1.91772 6.74718 2.70696 8.15116 3.91049 8.97688C3.20123 8.94822 2.50858 8.74825 1.88888 8.39323V8.44971C1.88888 10.6794 3.42541 12.5272 5.47324 12.9521C5.08874 13.0546 4.69319 13.107 4.29593 13.1081C4.00488 13.1081 3.72957 13.0785 3.45163 13.0382C4.01799 14.8564 5.66727 16.177 7.6312 16.22C6.09467 17.4545 4.17007 18.1807 2.08029 18.1807C1.70533 18.1807 1.35922 18.1673 1 18.1243C2.98228 19.4287 5.33427 20.1818 7.86718 20.1818C16.09 20.1818 20.5894 13.1942 20.5894 7.12911C20.5894 6.93008 20.5894 6.73105 20.5763 6.53201C21.4468 5.87844 22.2099 5.06886 22.8182 4.15977Z" fill="#EA3B4D"/>
</svg>
