<svg width="24" height="23" viewBox="0 0 24 23" fill="none" xmlns="http://www.w3.org/2000/svg">
<path d="M22.5728 6.23256C22.4533 5.8043 22.2197 5.41373 21.8954 5.09973C21.571 4.78574 21.1671 4.55927 20.724 4.44287C19.0809 4.0071 12.5073 4.00001 12.5073 4.00001C12.5073 4.00001 5.93472 3.99291 4.29053 4.40943C3.84767 4.53119 3.44464 4.76086 3.12015 5.07639C2.79566 5.39193 2.5606 5.78273 2.43754 6.21128C2.0042 7.79829 2 11.0899 2 11.0899C2 11.0899 1.9958 14.3977 2.426 15.9684C2.66733 16.8369 3.37558 17.523 4.27584 17.7571C5.93577 18.1929 12.4915 18.2 12.4915 18.2C12.4915 18.2 19.0651 18.2071 20.7083 17.7916C21.1516 17.6754 21.5558 17.4494 21.881 17.1361C22.2061 16.8227 22.441 16.4328 22.5623 16.0049C22.9967 14.4189 22.9998 11.1284 22.9998 11.1284C22.9998 11.1284 23.0208 7.81957 22.5728 6.23256ZM10.4046 14.1392L10.4098 8.05874L15.8733 11.1041L10.4046 14.1392Z" fill="#EA3B4D"/>
</svg>
